<?xml version="1.0" encoding="iso-8859-1"?>
<!-- Generator: Adobe Illustrator 17.0.2, SVG Export Plug-In . SVG Version: 6.00 Build 0)  -->
<!DOCTYPE svg PUBLIC "-//W3C//DTD SVG 1.1//EN" "http://www.w3.org/Graphics/SVG/1.1/DTD/svg11.dtd">
<svg version="1.1" id="&#x56FE;&#x5C42;_1" xmlns="http://www.w3.org/2000/svg" xmlns:xlink="http://www.w3.org/1999/xlink" x="0px"
	 y="0px" width="396px" height="272.5px" viewBox="0 0 396 272.5" style="enable-background:new 0 0 396 272.5;"
	 xml:space="preserve">
<path style="fill-rule:evenodd;clip-rule:evenodd;fill:#4684B8;" d="M58,31c-0.344,0.087-0.645-0.224-1,0s-0.879-0.142-1,0
	c-0.121,0.142-0.049,0.131-0.5,0S55,30.5,55,30.5h-1v-1V29l0.5-0.5L55,28c0,0-0.577-0.152-0.5-0.5s0-0.5,0-0.5L54,26.5
	c0,0,0.047-0.21-0.5-0.5c-0.547-0.289-0.106-0.71-0.5-0.5c-0.394,0.211,0.033-0.238-0.5,0c-0.533,0.238-0.72,0.653-1,0.5
	c-0.28-0.153-0.054-0.157-0.5,0s-0.035,0.488-0.5,0.5c-0.465,0.013-1,0.5-1,0.5L49,27.5c0,0-0.428,0.592-0.5,0.5s0.593,0.092,0,0
	s-0.896,0.038-1,0c-0.104-0.038-0.503,0.038-0.5,0c0.003-0.038-0.383,0.038-0.5,0c-0.117-0.038-0.262,0.12-0.5,0
	c-0.238-0.12-0.5,0-0.5,0L45,27.5h-1c0,0-0.512-0.741-1-0.5s-0.999-0.241-1,0s-0.069,0.568-0.5,0.5c-0.431-0.067-0.049-0.097-0.5,0
	s-0.019-0.151-0.5,0s-1,0.5-1,0.5s-0.507-0.244-0.5,0c0.007,0.244,0.221,0.317,0,0.5c-0.221,0.183-0.514,0.223-0.5,0.5s0,0.5,0,0.5
	V30v0.5L39,31v0.5l0.5,0.5H40v0.5l0.5,1c0,0-0.112,0.186,0,0.5c0.112,0.314,0.5,1.5,0.5,1.5V37l0.5,1v1v1l0.5,1l0.5,0.5L43,42v1
	l0.5,1l0.5,1h0.5l0.5,0.5l0.5,0.5v0.5c0,0,0.603,0.04,0.5,0.5c-0.103,0.46,0,0.5,0,0.5V48v0.5c0,0,0.002,0.261,0,0.5
	c-0.002,0.239,0.5,1,0.5,1s-0.392-0.279,0,0c0.392,0.279,0.5,0.5,0.5,0.5l0.5,0.5v0.5L47,52v0.5V53v0.5c0,0-0.261,0.216,0,0.5
	c0.261,0.284,0.5,0.5,0.5,0.5s0.029,0.495,0,0.5c-0.029,0.005,0,0,0,0v0.5v1V57c0,0-0.598,0.199-0.5,0.5
	c0.098,0.301-0.126,0.161,0,0.5c0.126,0.339,0.5,0.5,0.5,0.5V59l0,0v0.5V60L47,60.5c0,0,0.052,0.491,0,0.5s0,0,0,0
	s0.253,0.051,0,0.5c-0.253,0.449-0.5,0.5-0.5,0.5v0.5V63c0,0,0.236,0.381,0,0.5c-0.236,0.119-0.334,0.37-0.5,0.5
	c-0.166,0.13-0.5,0.5-0.5,0.5L45,65l0,0l0.5,0.5l1,0.5v0.5L47,67l0.5,0.5l0,0V68c0,0,0.228,0.12,0,0.5s-0.5,1-0.5,1h-0.5V70v0.5
	c0,0,0.023-0.287,0,0s0,0.5,0,0.5v1l0,0L46,72.5c0,0,0.116,0.331,0,0.5s-0.5,0.5-0.5,0.5V74L45,74.5L44.5,75c0,0,0.196-0.387,0,0
	c-0.196,0.387-0.5,1-0.5,1s-0.004,0.464,0,0.5c0.004,0.036-0.004,0.344,0,0.5c0.004,0.156,0,0.5,0,0.5v1l0,0V79v0.5V80
	c0,0,0.202,0.12,0,0.5c-0.202,0.38-0.5,0.5-0.5,0.5L43,81.5l-0.5,1c0,0-0.591,0.466-0.5,0.5c0.091,0.034,0.174,0.682,0,0.5s-1,0-1,0
	l0,0L40.5,84v1v0.5V86v1l0,0L40,87.5c0,0,0.471,0.473,0,0.5c-0.471,0.027-1,0.5-1,0.5V89c0,0,0.397,0.713,0.5,0.5
	c0.103-0.213,0.486,0.067,0.5,0c0.014-0.067,0.5,0,0.5,0L41,90l0,0l0.5,0.5V91v0.5V92c0,0,0.451-0.07,0.5,0
	c0.049,0.07,0.5,0.5,0.5,0.5H43c0,0,0.189,0.037,0.5,0s0.5,0,0.5,0l0.5,0.5v0.5v1V95v1v1v1l0.5,0.5v1v1c0,0-0.064,0.475,0,0.5
	c0.064,0.025,0,0.5,0,0.5s-0.293,0.282-0.5,0.5c-0.207,0.218-0.5,0.5-0.5,0.5s0.093,0.361-0.5,0.5c-0.593,0.139-0.424,0.56-1,0.5
	c-0.576-0.06-0.631-0.186-1,0c-0.369,0.186-0.921,0.705-1,0.5c-0.079-0.205-0.937,0.096-1,0c-0.063-0.096-0.5,0-0.5,0
	s0.092,1.02,0,1c-0.092-0.02,0.147,0.427,0,0.5c-0.147,0.073,0.248,0.498,0,0.5s-0.37,0.487-0.5,0.5c-0.13,0.013-0.5,0.5-0.5,0.5
	l-0.5,0.5c0,0-0.084,0.007-0.5,0.5c-0.416,0.493-1.001,0.851-1,1c0.001,0.149-0.236,0.241-0.5,0.5c-0.264,0.259-0.025,0.167-0.5,0.5
	c-0.475,0.333-1.17,0.673-1,1c0.17,0.327-0.143,0.898,0,1c0.143,0.101,0.085,0.096,0,0.5c-0.085,0.403,0.122,0.885,0,1
	c-0.122,0.115-0.397,0.293,0,0.5c0.397,0.207,0.5,0.5,0.5,0.5L35,115c0,0,0.826,0.433,1,0.5c0.174,0.067,0.143,0.395,0.5,0.5
	c0.357,0.105,0.767,0.384,1,0.5c0.233,0.116,0.228,0.747,0.5,0.5c0.272-0.247,0.071,0.165,0.5,0c0.429-0.165,0.087,0.101,0.5,0
	c0.413-0.101,0.5,0,0.5,0H40c0,0-0.444,0.278,0,0.5c0.444,0.221,0.054,0.377,0.5,0.5c0.446,0.123,0.724,0.375,1,0.5
	c0.276,0.125-0.016-0.362,0.5,0c0.516,0.362,0.5,0.5,0.5,0.5s0.655,0.259,0.5,0.5c-0.155,0.241,0,0.5,0,0.5s0.051-0.151,0.5,0
	c0.449,0.151,0.831-0.151,1,0c0.169,0.151-0.263,0.666,0.5,0.5c0.763-0.166,0.943,0.029,1.5,0c0.557-0.029,0.668-0.117,1,0
	c0.332,0.117,0.247,0.682,0.5,0.5c0.253-0.182,0.5,0,0.5,0l0.5,0.5h0.5L50,122l0.5,1l0.5,0.5c0,0-0.417,0.299,0,0.5
	c0.417,0.201,0.653,1.051,1,1s0.978,0.051,1,0s0.167,0.325,0.5,0c0.333-0.324,1-1,1-1l0.5-1l0.5-0.5c0,0,0.367-1.011,0.5-1
	c0.133,0.011,0.046-0.472,0.5-0.5c0.454-0.028,0.889-0.508,1-0.5c0.111,0.008,0.06-0.452,0.5-0.5c0.44-0.048,0.539-0.569,1-0.5
	c0.461,0.069,0.02-0.015,0.5,0c0.48,0.014,0.444-0.261,1,0c0.556,0.26,1,0.5,1,0.5s0.668-0.511,0.5,0c-0.168,0.51-0.306,0.933,0,1
	c0.306,0.067,0.81,0.633,1,0.5c0.19-0.133,0.461,0.023,1,0c0.538-0.023-0.05-0.059,0.5,0c0.55,0.059,0.83-0.314,1,0
	c0.17,0.314,0.5,0.5,0.5,0.5l0.5,0.5c0,0,0.519,0.293,0.5,0.5c-0.019,0.208,0,0.5,0,0.5s0.788,0.563,1,0.5
	c0.212-0.063,0.395-0.056,0.5,0c0.105,0.056,0.5,0.5,0.5,0.5h1c0,0,0.159,0.74,0.5,0.5c0.341-0.24,0.147,0.24,0.5,0
	c0.353-0.24,0.827-0.723,1-0.5c0.173,0.223,0.5,0.5,0.5,0.5H73l0,0l-0.5,1c0,0,0.166-0.447-0.5,0c-0.666,0.447-1,1-1,1
	s-0.931-0.341-1,0c-0.069,0.341-0.019,0.058-0.5,0.5c-0.481,0.442-0.5,0.5-0.5,0.5s-0.563-0.046-0.5,0.5c0.063,0.546,0.5,1,0.5,1
	s-0.604,0.477,0,0.5s0.566-0.187,1,0s0.047,0.567,0.5,0.5c0.453-0.067,1,0.5,1,0.5H72c0,0,0.871,0.371,0.5,0.5
	c-0.371,0.129-0.083,0.461-0.5,0.5s-1.065,0.341-0.5,0.5s0.578-0.241,1,0s0.241,0.196,0.5,0s0.467-0.166,0.5-0.5s-0.507-0.502,0-0.5
	s0.719-0.275,1,0c0.281,0.275,0.5,0.5,0.5,0.5s0.188,0.331,0.5,0.5s0.177-0.032,0.5,0c0.323,0.032,0.513,0.333,0.5,0s0-1,0-1
	s-0.451-0.344,0-0.5c0.451-0.156,0.157,0.32,0.5,0c0.343-0.32,0.265-0.653,0.5-0.5c0.235,0.153,0.5,0,0.5,0s-0.174,0.668,0,0.5
	c0.174-0.168,0.5,0,0.5,0l0,0l0.5,0.5v0.5l0,0c0,0,1.046,0.315,1,0.5c-0.046,0.185-0.373-0.267,0,0c0.373,0.267,1,0.5,1,0.5
	s0.494-0.032,0.5,0c0.006,0.032,0.5,0,0.5,0v0.5v1c0,0,0.708,0.85,0.5,1s0.235,0.873,0,1c-0.235,0.127-0.5,1-0.5,1l0.5,0.5
	c0,0-0.422,0.586,0,0.5s1,0,1,0L84,139c0,0-0.325,0.18,0,0.5c0.325,0.321,0.238-0.15,0.5,0.5c0.262,0.65,0.246,0.903,0.5,1
	s0.18-0.151,0.5,0s0.5,0.5,0.5,0.5s0.158-0.016,0.5,0s0.11-0.108,0.5,0s-0.128-0.299,0.5,0S88,142,88,142l0.5,0.5v0.5l0.5,0.5h0.5
	v0.5v0.5v1v0.5v1v1.5c0,0,0.056,0.74,0,1c-0.056,0.26-0.5,0.5-0.5,0.5s-0.142,0.227,0,0.5s0,1,0,1l0.5,0.5c0,0-0.28-0.259,0,0
	c0.28,0.259,0.5,0.5,0.5,0.5s0.261,0.213,0.5,0s-0.014-0.404,0.5-0.5s0.012,0.324,0.5,0s0.092-0.584,0.5-0.5s0.937-0.03,1,0
	c0.063,0.03,0.254-0.194,0.5,0s0.215-0.303,0.5,0c0.285,0.303,0.278,0.697,0.5,0.5c0.222-0.197,0.212-0.104,0.5,0s0.846-0.186,1,0
	s0.5,0.5,0.5,0.5v0.5v0.5c0,0,0.147,0.925,0,1s-0.662,0.051-0.5,0.5s-0.043,0.876,0,1s0,0.5,0,0.5s-0.067,0.693-0.5,0.5
	s-0.683,0.165-1,0c-0.317-0.165-0.5,0-0.5,0h-0.5c0,0,0.39,0.518,0.5,0.5c0.11-0.018-0.013-0.138,0.5,0c0.513,0.138,0.011-0.22,1,0
	c0.989,0.22,0.61-0.357,1,0S97,158,97,158l0,0v0.5c0,0,0.218,0.062,0,0.5c-0.218,0.438-0.581,0.077-0.5,0.5s0,1,0,1v0.5
	c0,0,0.245,0.205,0,0.5c-0.245,0.295-0.5,0.5-0.5,0.5v0.5l-0.5,0.5c0,0,0.066-0.365,0,0s0,0.5,0,0.5v0.5v0.5c0,0,0.419,0.919,0.5,1
	s0,0.5,0,0.5v0.5v1.5v1.5l-0.5,1L95,172l-0.5,1v1l-0.5,1.5c0,0-0.019,0.158,0,0.5s-0.019,0.909,0,1s0,1,0,1l0.5,0.5
	c0,0,0.075,0.383,0.5,0.5s-0.149,0.581,1,0.5s1.157,0.044,1.5,0s0.508,0.235,1,0s1-1,1-1l0.5-1l1-0.5l1-0.5c0,0,0.388-0.21,0.5-0.5
	s1-0.5,1-0.5s0.3-0.38,0.5-0.5s1.5-1,1.5-1l0.5-0.5c0,0,0.475-0.556,0.5-0.5c0.025,0.056-0.073-0.001,0.5,0c0.573,0.001,1.5,0,1.5,0
	s0.876-0.029,1,0s0.965-0.083,1,0c0.035,0.083-0.048-0.329,0.5,0c0.548,0.329,1,0.5,1,0.5s0.061,0.476,0,0.5c-0.061,0.024,0,0,0,0
	s-0.637-0.399-0.5,0c0.136,0.399-0.109,0.08,0,0.5c0.109,0.42-0.137,0.886,0,1c0.136,0.114-0.137,0.302,0,0.5
	c0.136,0.198-0.137,0.282,0,0.5c0.136,0.218-0.238,0.216,0,0.5c0.238,0.284,0.388,0.433,0.5,0.5s0.559-0.277,0.5,0
	s-0.653,0.495,0,0.5c0.653,0.005-0.045-0.315,0.5,0c0.545,0.315,0.373,0.383,0.5,0.5c0.127,0.117-0.127,0.325,0,0.5
	c0.127,0.175,0.101,0.921,0,1s-0.525-0.454-0.5,0c0.025,0.454,0.039-0.156,0,0.5c-0.039,0.656,0.24,0.614,0,1
	c-0.24,0.386-0.303,0.876-0.5,1c-0.197,0.124-0.385,0.108-0.5,0.5s0,0.5,0,0.5s-0.265,0.726-0.5,0.5s0.074,0.253-0.5,0
	c-0.574-0.253-0.97-0.72-1-0.5c-0.03,0.22-0.5,0-0.5,0L109,184c0,0-0.528,0.588-0.5,0.5c0.028-0.088,0.364-0.086,0,0
	c-0.364,0.086-1,0.5-1,0.5l0,0c0,0-0.091,0.236,0,0.5c0.091,0.264,0.453,0.471,0.5,0.5c0.047,0.029,0.5,0.5,0.5,0.5s0.634-0.286,0,0
	c-0.635,0.286-1,0.5-1,0.5v0.5l0.5,0.5v0.5c0,0,0.26,0.071,0.5,0.5c0.24,0.429,0.787,0.333,0.5,0.5
	c-0.287,0.167-0.567,0.322-0.5,0.5c0.067,0.178,0.089,0.428,0,0.5c-0.089,0.072-0.41,0.536-0.5,0.5s-0.572-0.237-0.5,0
	c0.072,0.237-0.608,0.316-0.5,0.5c0.108,0.184-0.189,0.269,0,0.5s0.5,0.5,0.5,0.5s0.436,0.64,0.5,0.5c0.064-0.14,0.124,0.13,0.5,0
	c0.376-0.13,0.15,0.13,0.5,0s0.194,0.075,0.5,0c0.306-0.075,0.384-0.061,0.5,0c0.116,0.061,0.5,0,0.5,0l0.5,0.5v0.5h0.5
	c0,0-0.361,0.687,0,0.5s-0.091,0.269,0.5,0c0.591-0.269,0.762-0.512,1-0.5c0.238,0.012,0.923,0.288,1,0c0.077-0.288,0.5-0.5,0.5-0.5
	s0.355,0.262,0.5,0s0.19-0.601,0.5-0.5c0.31,0.101,0.316-0.074,0.5,0c0.184,0.074,0.486-0.156,0.5,0
	c0.013,0.156,0.521,0.515,0.5,0.5s-0.235-0.186,0,0s0.182,0.395,0.5,0.5c0.318,0.105,0.098-0.051,0.5,0c0.402,0.051,0.5,0,0.5,0
	s-0.12-0.856,0-1s0-0.5,0-0.5s0.396-0.654,0.5-0.5c0.104,0.154,0.439,0.02,0.5,0c0.06-0.02,0.5,0,0.5,0s0.331,0.275,1,0
	c0.669-0.275,0.266-0.698,1-0.5c0.734,0.198,0.144-0.252,1,0c0.856,0.252,0.359,0.683,1,0.5c0.64-0.183,0.538-0.017,1,0s0.5,0,0.5,0
	s0.208,0.38,0.5,0.5c0.292,0.12,0.352,0.387,0.5,0.5c0.148,0.113,0.5,1,0.5,1s-0.13-0.456,0,0c0.13,0.456,0,1,0,1s0.016,0.056,0,0.5
	c-0.016,0.444,0.162,1.018,0,1c-0.162-0.018-0.546,0.343-0.5,0.5s0.309,0.223,0,0.5c-0.31,0.277-0.609,0.883-0.5,1
	c0.108,0.117-0.081,0.208,0,0.5s-0.299,1.265,0,1.5c0.299,0.235,0.5,0.281,0.5,0.5c0,0.219-0.447,0.216,0,0.5
	c0.447,0.284,0.188,0.086,0.5,0.5c0.312,0.414,0.341,0.239,0.5,0.5c0.159,0.261,0.485,0.62,0.5,0.5c0.015-0.12,0.464,0.056,0.5,0
	c0.036-0.056-0.483,0.056,0,0c0.483-0.056,0.5,0,0.5,0s0.752,0.442,0.5,0.5s-0.5,0-0.5,0l-0.5,0.5v0.5L128,205
	c0,0,0.139,0.386,0,0.5s-0.5,1-0.5,1s0.203,0.24,0,0.5s-0.578,0.892-0.5,1c0.078,0.108,0.013,1.053,0,1c-0.013-0.053,0,1.5,0,1.5
	l-0.5,1v0.5c0,0-0.453,1.04-0.5,1c-0.047-0.04-0.57,1.01-0.5,1c0.07-0.01,0,0.5,0,0.5l-0.5,1h-0.5c0,0,0.363,0.557,0,0.5
	c-0.363-0.057-0.5,0.5-0.5,0.5l-0.5,0.5c0,0,0.009,0.143,0,0.5s0,0.5,0,0.5l-0.5,0.5c0,0-0.523,0.32-0.5,0.5
	c0.023,0.18-0.5,0.5-0.5,0.5l-0.5,0.5c0,0-0.354,0.145-0.5,0.5c-0.146,0.355-0.499,0.153-0.5,0.5c-0.002,0.347-0.5,1-0.5,1h-0.5
	c0,0-0.221,0.577-0.5,0.5s-0.118-0.26-0.5,0s-0.78,0.566-1,0.5c-0.221-0.066-1,0-1,0v0.5c0,0,0.088,0.788,0,1
	c-0.088,0.212,0,0.5,0,0.5v0.5v0.5v0.5c0,0-0.222,0.059,0,0.5s0,1,0,1v0.5v1v0.5l-0.5,0.5l0,0c0,0-0.108,0.054-0.5,0.5s-1,1-1,1
	l-0.5,0.5l-1,0.5l-0.5,1c0,0-0.072,0.115,0,0.5c0.072,0.385,0,1,0,1v0.5l0.5,0.5c0,0-0.204-0.196,0,0
	c0.204,0.196,0.34,0.648,0.5,0.5c0.16-0.148,0,0,0,0h0.5l0.5,0.5L114,238c0,0-0.295,0.886,0,1c0.295,0.114,0.367,1.175,0.5,1
	c0.133-0.175,0.229,0.038,0.5,0c0.271-0.038-0.165-0.172,0.5,0c0.664,0.172,0.625-0.309,1,0s0.96,0.391,1,0.5
	c0.04,0.109,0.5,0.5,0.5,0.5v0.5v0.5h-0.5c0,0-0.295,0.352,0,0.5c0.295,0.148,0.5,0.5,0.5,0.5s0.984,0.169,1,0.5
	c0.016,0.331-0.555,0.305,0,0.5c0.555,0.195,1.206,0.586,1.5,0.5s0.067-0.051,0.5,0c0.433,0.051,1-0.306,1.5,0
	c0.5,0.306-0.449,0.585,0.5,0.5s0.003,0.057,1,0c0.997-0.057,1.09,0.057,2,0c0.91-0.057,0.906,0.085,1.5,0
	c0.594-0.085,1.212,0.149,1.5,0s0.8-0.496,1-0.5c0.2-0.004,0.5,0,0.5,0s0.397-0.512,0.5-0.5c0.103,0.012,0.5-0.5,0.5-0.5l0.5-1
	c0,0,0.046-0.241,0.5-0.5s0.099-0.394,0.5-0.5s0.088,0.297,0.5,0c0.412-0.297,0.004-0.703,0.5-0.5c0.496,0.203,0.003-0.595,0.5,0
	c0.497,0.595,0.5,0.5,0.5,0.5l0.5,0.5c0,0-0.227,0.6,0,0.5s0.135-0.073,0.5,0s0.298,0.155,0.5,0c0.202-0.155-0.403-0.535,0-0.5
	c0.403,0.035,0.168,0.029,0.5,0s0.212,0.002,0.5,0s-0.008-0.144,0.5,0s0.099-0.126,0.5,0c0.401,0.126,0.116,0.367,0.5,0
	c0.384-0.367,0.206-0.558,0.5-1s0.186-0.656,0.5-1c0.313-0.344,0.302-0.391,0.5-0.5c0.197-0.109-0.146-0.362,0.5-0.5
	c0.646-0.138,1-0.5,1-0.5s0.112,0.519,0.5,0.5c0.388-0.019-0.081-0.41,0.5,0c0.58,0.41,1,1,1,1l0.5,0.5c0,0,0.515,0.437,0.5,0.5
	s0,0,0,0s0.01,0.49,0.5,0.5s0.152-0.01,0.5,0c0.348,0.01,0.932,0.191,1,0s0.5-0.5,0.5-0.5s-0.472,0.33,0,0
	c0.472-0.33,0.954-0.305,1-0.5s0.379-0.594,0.5-0.5c0.121,0.094,0.149,0.097,0.5,0s-0.026,0.152,0.5,0c0.526-0.152,0.672,0.097,1,0
	c0.328-0.097,0.852-0.067,1,0s-0.358-0.131,0,0s-0.007,0.668,0.5,0.5s0.164,0.195,0.5,0c0.336-0.195,0.17-0.576,0.5-0.5
	s0.37,0.234,0.5,0s0.5-0.5,0.5-0.5l0.5-0.5l0,0c0,0-0.112-0.311,0.5,0c0.611,0.311,0.5,0.5,0.5,0.5l0.5,0.5l0.5,0.5
	c0,0,0.313-0.01,0.5,0s0.148-0.01,0.5,0c0.352,0.01-0.127-0.01,0.5,0s0.862-0.037,1,0c0.138,0.037-0.395-0.111,0,0s0.5,0.5,0.5,0.5
	h0.5c0,0,0.075,0.998,0,1c-0.075,0.002-0.499,0.251,0,0.5s0.5,0.5,0.5,0.5l0.5,1c0,0-0.357,0.414,0,0.5
	c0.357,0.086,0.115,0.614,0.5,0.5s0.5,0,0.5,0s-0.287,0.301,0,0.5s0.685,0.161,0.5,0.5c-0.185,0.339-0.532,0.06-0.5,0.5
	c0.032,0.44,0,1,0,1v1c0,0-0.391,0.543-0.5,0.5c-0.109-0.043-0.59-0.441-0.5,0c0.09,0.441,0.193,0.094,0,0.5s-0.534,0.902-0.5,1
	s-0.652,0.127-0.5,0.5c0.152,0.373-0.07,0.888,0,1c0.07,0.112,0,1,0,1s-0.251,0.126,0,0.5s0.347,1.349,0.5,1.5s0.281,0.754,0.5,1
	s0.097,0.243,0.5,0.5s0.658,0.443,1,0.5s1,0,1,0s0.962-0.03,1,0c0.037,0.03,0.5,0,0.5,0l0.5-1l0.5-0.5l0.5-0.5c0,0,1.148-0.657,1-1
	s0-1,0-1h0.5h0.5l0.5-0.5h0.5c0,0,0.253-0.523,0.5-0.5c0.247,0.023,0.214,0.234,0.5,0c0.286-0.234,0.301-0.501,0.5-0.5
	c0.199,0.001,0.5,0,0.5,0l0.5-0.5c0,0,0.284-0.209,0.5,0c0.216,0.209-0.59-0.209,0,0c0.59,0.209-0.175,0.709,0.5,0.5
	c0.675-0.209-0.104,0.209,0.5,0c0.604-0.209,1,0,1,0l0.5-0.5l0.5-0.5l0.5-0.5v-0.5h0.5c0,0,0.383-0.487,0.5-0.5s0.5,0,0.5,0
	s0.288-0.346,0.5-0.5c0.212-0.154,0.423-0.472,0.5-0.5c0.077-0.028,0.5,0,0.5,0s-0.308-0.615,0-0.5c0.308,0.115-0.11-0.033,0.5,0
	s0.77,0.004,1,0s0.812,0.004,1,0c0.188-0.004,0.101,0.004,0.5,0c0.399-0.004-0.32-0.17,0.5,0s0.88,0.575,1,0.5s0.367-0.273,0.5,0
	c0.133,0.273,0.257,0.536,0.5,0.5s0.389,0.036,0.5,0s0.5,0,0.5,0V248c0,0,0.347-0.053,0.5,0c0.153,0.053,0.208-0.135,0.5,0
	c0.291,0.135,0.397-0.298,0.5,0c0.103,0.298-0.661,0.491,0,0.5c0.66,0.009-0.263-0.009,0.5,0c0.763,0.009,1,0,1,0h0.5l0.5-1v-1
	c0,0-0.303-0.167-0.5,0c-0.197,0.167-0.419,0.024-0.5,0c-0.081-0.024,0-0.5,0-0.5v-0.5c0,0,0.477-0.06,0.5,0
	c0.023,0.06,0.576,0.022,0.5,0s-0.271,0.141,0,0c0.271-0.141,0.5-0.5,0.5-0.5l0,0l0.5-0.5c0,0,0.219-0.063,0.5,0
	c0.281,0.063,0.071-0.063,0.5,0c0.429,0.063,0.85-0.063,1,0s0.393-0.026,0.5,0s0.5,0,0.5,0l0.5-0.5l0.5-0.5V243v-1
	c0,0,0.612-0.435,0.5-0.5s0-0.5,0-0.5l0.5-0.5h0.5l0.5-0.5l0.5-0.5c0,0,0.215-0.459,0.5-0.5s0.286,0.316,0.5,0s0.449-0.273,0.5-0.5
	c0.051-0.227,0-0.5,0-0.5s0.41,0.175,0.5,0c0.089-0.175,0.5-0.5,0.5-0.5s0.173,0.405,0,0s0-1,0-1v-1l-0.5-0.5c0,0,0.311-0.066,0-0.5
	c-0.311-0.434-0.352-0.955-0.5-1s-0.5-0.5-0.5-0.5s-0.051-0.768,0-1c0.051-0.232-0.133-0.12,0-0.5c0.133-0.38,0.5-1,0.5-1
	c0.174-0.109,0.5-0.5,0.5-0.5l0.5-0.5l0.5-0.5c0,0,0.362,0.023,0.5,0c0.138-0.023-0.631,0.023,0,0c0.631-0.023,0.821,0.196,1,0
	c0.179-0.196,0.484-0.64,0.5-0.5c0.016,0.14,0.373-0.058,0.5,0s0.444,0.215,0.5,0c0.056-0.215,0-0.5,0-0.5l0.5-0.5
	c0,0-0.045,0.038-0.5,0s-0.889,0.147-1,0c-0.111-0.147-0.114-0.379-0.5-0.5c-0.386-0.121,0.051-0.596-0.5-0.5
	c-0.551,0.096-0.129,0.324-0.5,0c-0.371-0.324-0.5-0.5-0.5-0.5v-0.5c0,0-1.117-0.952-1-1s0.121,0.267,0,0
	c-0.121-0.267-0.606-0.396-0.5-0.5c0.106-0.104,0.277-0.431,0-0.5c-0.277-0.069-1.079,0.488-0.5,0c0.578-0.488,0.957-0.256,1-0.5
	c0.043-0.244-0.371-0.729,0-0.5c0.371,0.229,0.772-0.393,1,0c0.228,0.393,0.5,0.5,0.5,0.5v0.5c0,0,0.36-0.36,0.5,0
	c0.14,0.36,0,0.5,0,0.5s0.257,0.481,0.5,0.5c0.243,0.019,0.191-0.183,0.5,0s0.326-0.265,0.5,0c0.173,0.265,0.307,0.626,0.5,0.5
	c0.193-0.126-0.178,0.126,0.5,0c0.678-0.126,0.838,0.262,1,0c0.162-0.262-0.271-0.473,0-0.5s0.62-0.479,0.5-0.5
	c-0.12-0.021,0.229-0.523,0-0.5s-0.506-0.184-0.5-0.5s0.595-0.864,0-1c-0.596-0.136-0.058,0.583-0.5,0
	c-0.443-0.583-0.476-0.861-0.5-1c-0.025-0.139-0.14-0.504,0-0.5c0.139,0.004,0.5,0,0.5,0s-0.443,0.261,0,0
	c0.443-0.261-0.19-0.685,0.5-0.5s1,0,1,0h0.5l1-0.5l0.5-0.5c0,0-0.409-0.471,0-0.5s0.127,0.339,0.5,0s0.024-0.569,0.5-0.5
	s0.059,0.132,0.5,0c0.44-0.132,0.121,0.268,0.5,0c0.379-0.268,0.174-0.449,0.5-0.5c0.326-0.051,0.19,0.17,0.5,0s-0.057,0.389,0.5,0
	c0.557-0.389,0.905-0.447,1-0.5c0.095-0.053-0.18,0.281,0.5,0c0.68-0.281,0.736-0.501,1-0.5c0.264,0.001,1.007-0.527,1-0.5s0,0,0,0
	l0.5-1c0,0-0.033-0.276,0-0.5s-0.316-0.292,0-0.5c0.316-0.208,0.036-0.592,0.5-0.5s0.006-0.055,0.5,0c0.494,0.055-0.151-0.027,0.5,0
	c0.651,0.027,0.5,0,0.5,0s0.584-0.361,0.5-0.5c-0.084-0.139-0.5-0.5-0.5-0.5s-0.107-0.118,0-0.5c0.107-0.382-0.244-0.254,0-0.5
	c0.244-0.246,0.5-0.5,0.5-0.5l0.5-0.5c0,0-0.696,0.332,0,0c0.696-0.332,0.629-0.522,1-0.5c0.371,0.022,0.2,0.015,0.5,0
	s0.335,0.015,0.5,0c0.165-0.015-0.475,0.28,0,0c0.475-0.28,0.5-0.5,0.5-0.5l0.5-0.5c0,0-0.425-0.37,0-0.5
	c0.425-0.13-0.273,0.13,0.5,0s0.907,0.184,1,0s-0.175-0.514,0-0.5s0.5-0.5,0.5-0.5v-1c0,0,0.188-0.333,0-0.5s0.052-0.285,0-0.5
	c-0.052-0.215-0.34-0.393,0-0.5s0.33-0.573,0.5-0.5c0.17,0.073,0.475,0.501,0.5,0c0.025-0.501,0-1,0-1V203v-0.5l-1-1V201
	c0,0-0.32-0.538-0.5-0.5s-0.5,0-0.5,0s-0.019-0.817,0-1c0.019-0.183,0.145-0.051,0-0.5c-0.145-0.449,0-0.5,0-0.5L222,198
	c0,0-0.373-0.991,0-1s-0.032,0.091,0.5,0c0.531-0.091,0.086,0.182,0.5,0c0.414-0.182,0.5,0,0.5,0l1-0.5c0,0-0.091-0.387,0-0.5
	c0.091-0.113-0.21-0.231,0-0.5c0.209-0.269,0.599-0.212,0.5-0.5c-0.099-0.288,0.008-0.173,0-0.5c-0.008-0.327,0-0.5,0-0.5v-0.5
	c0,0-0.07-0.679-0.5-0.5c-0.43,0.179-0.885-0.042-1,0c-0.115,0.042,0.081,0.013-0.5,0c-0.581-0.013-0.008,0.013-0.5,0
	c-0.492-0.013-1,0-1,0H221v-0.5V191v-0.5v-1V189v-0.5V188l0.5-0.5V187v-0.5h0.5c0,0-0.285-0.381,0-0.5s0.523,0.456,0.5,0
	c-0.023-0.456-0.332-0.134,0-0.5s0.176-0.214,0.5-0.5s0.5-0.5,0.5-0.5s0.213-0.236,0-0.5c-0.213-0.264-0.377-0.508-0.5-0.5
	c-0.123,0.008-0.5,0-0.5,0L222,183h-0.5c0,0,0.166-0.447,0-0.5c-0.166-0.053,0-0.5,0-0.5v-0.5l0,0l0.5-1V180v-1l0.5-0.5L222,178
	l-0.5-1l-0.5-0.5l-0.5-0.5c0,0-0.277-0.475-0.5-0.5s-0.057-0.583-0.5-0.5c-0.443,0.083-1.5,0-1.5,0s-0.871-0.104-1,0
	c-0.129,0.104-0.5,0-0.5,0l-0.5,0.5l-1,0.5c0,0,0.408,0.573,0,0.5c-0.408-0.073-0.872-0.282-1,0c-0.128,0.282-0.161,0.499-0.5,0.5
	s-0.678-0.274-1,0c-0.322,0.274-0.831,0.644-1,0.5c-0.17-0.144-0.11-0.583-0.5-0.5c-0.39,0.083-0.963,0.337-1,0
	c-0.037-0.337-0.5-0.5-0.5-0.5V176c0,0-0.559-1.518-0.5-1.5c0.059,0.018,0-0.5,0-0.5s-0.53-0.177-0.5-0.5c0.03-0.323,0-0.5,0-0.5
	v-0.5l0.5-1c0,0-0.407-0.46-0.5-0.5c-0.093-0.04-0.678-0.551-1-0.5c-0.322,0.051-1,0-1,0s-0.339-0.839-0.5-1
	c-0.161-0.161,0.161-0.382,0-0.5s0.052-0.226,0-0.5c-0.052-0.274-0.249-0.252,0-0.5c0.248-0.248,0.586-1.022,0.5-1
	c-0.086,0.023-0.242,0.387,0,0s0.257-0.074,0.5-0.5c0.243-0.426,0.647-0.618,0.5-1c-0.148-0.382-0.497-0.016-0.5-0.5
	c-0.003-0.484-0.5-1-0.5-1l-0.5-0.5c0,0,0.523-0.257,0.5-0.5c-0.023-0.243-0.169-0.244,0-0.5c0.169-0.256-0.033,0.031,0-0.5
	c0.033-0.531-0.322-0.431-0.5-1c-0.178-0.569-0.503-0.029-0.5-0.5c0.002-0.471-0.292-1.065-0.5-1c-0.208,0.065-0.035,0.136-0.5,0
	c-0.465-0.136-0.754,0.665-0.5,0s0-0.5,0-0.5s-0.337-0.306,0-0.5s0.943-0.369,1-0.5c0.057-0.131-0.722,0.322,0,0
	c0.722-0.322,0.402-0.76,1-0.5c0.598,0.26,0.836,0.887,1,0.5c0.164-0.387,0.352-0.422,0.5-0.5s0.586,0.399,0.5,0
	c-0.086-0.399,0-1,0-1V156l0.5-1v-1v-2c0,0,0.071,0.446,0,0s0-1,0-1s-0.391-0.387-0.5-0.5c-0.109-0.113-0.499-0.34-0.5-0.5
	c-0.001-0.16,0.065-0.247,0-0.5c-0.066-0.253-0.19-0.31,0-0.5c0.19-0.19,0.363-0.527,0.5-0.5c0.137,0.027,0.307,0.347,0.5,0
	c0.193-0.347-0.595-0.315,0-0.5c0.595-0.185,0.211-0.205,1-0.5c0.789-0.295,1-0.5,1-0.5s0.099-0.15,0.5,0
	c0.401,0.15,0.276-0.013,1,0c0.724,0.013,0.529-0.013,1,0c0.471,0.013,0.081-0.123,1,0c0.919,0.123,1.115-0.242,1.5,0
	c0.385,0.242,1.466,0.503,1.5,0.5c0.034-0.003,0.273-0.079,0.5,0c0.227,0.079,0.189,0.058,0.5,0c0.311-0.058,0.5,0,0.5,0V147
	l0.5-0.5c0,0-0.643-0.301,0,0c0.643,0.301,1.248,0.459,1,0.5c-0.248,0.041-0.117,0.522,0,0.5c0.117-0.022,0.335-0.243,0.5,0
	c0.165,0.243,0.133,0.665,0.5,0.5c0.367-0.165-0.015,0.302,0.5,0s1.056-0.552,1-0.5s0.018,0.112,0.5,0c0.482-0.112,0.761,0.14,1,0
	c0.239-0.14,0.314,0.14,0.5,0c0.186-0.14-0.015,0.222,0.5,0c0.515-0.222,0.028-0.577,0.5-0.5c0.472,0.077,1.036,0.287,1,0
	s-0.24-0.385,0.5-0.5c0.74-0.115,0.722,0.535,1,0c0.278-0.535,0.394-1.018,0.5-1c0.106,0.019,0.164,0.073,0.5,0s0.308-0.128,0.5,0
	s0.5,0.5,0.5,0.5v0.5l0.5,0.5c0,0-0.186,0.338,0,0.5c0.186,0.162,0.149,0.118,0.5,0.5c0.351,0.383-0.481,0.399,0.5,0.5
	c0.981,0.101,1.39-0.247,1.5,0c0.109,0.247-0.304,0.48,0.5,0.5c0.804,0.021,0.749-0.303,1,0c0.25,0.303,0.5,1,0.5,1
	s-0.14-0.379-0.5,0s-0.5,0.5-0.5,0.5v0.5c0,0,0.594,0.189,1,0.5c0.406,0.311,1,1,1,1l0,0v0.5v0.5c0,0-0.377,0.213,0,0.5
	c0.377,0.287,0.066,0.413,0.5,0.5c0.434,0.087,0.027-0.27,0.5,0c0.472,0.271,1,0.5,1,0.5s0.217,0.217,0,0.5
	c-0.217,0.283-0.5,0.5-0.5,0.5s0.228,0.232,0,0.5c-0.228,0.268,0.109,0.02,0,0.5c-0.11,0.48-0.283,0.755,0,1
	c0.283,0.245-0.122,0.591,0.5,0.5c0.622-0.091-0.178,0.309,0.5,0c0.678-0.309,0.548-0.226,1-0.5s-0.026-0.043,0.5-0.5
	c0.526-0.457-0.001-0.324,0.5-0.5c0.5-0.176-0.058,0.039,0.5,0c0.558-0.039,0.103-0.125,0.5,0c0.397,0.125-0.099-0.234,0.5,0
	s0.716-0.17,1,0c0.284,0.17,0.059,0.049,0.5,0c0.441-0.049,0.167,0.349,0.5,0s0.275-0.058,0.5-0.5c0.225-0.442,0.5-0.5,0.5-0.5v-0.5
	c0,0,0.801-0.471,0.5-0.5c-0.301-0.029-0.399,0.339-0.5,0c-0.101-0.339,0-0.5,0-0.5s-0.098-0.459,0-0.5
	c0.098-0.041,0.646,0.443,0.5,0s-0.055-0.21,0-0.5c0.054-0.29-1.075-0.601,0-0.5c1.075,0.101,1.232-0.064,1.5,0
	c0.268,0.064,0.176-0.064,0.5,0c0.324,0.064-0.071-0.091,0.5,0c0.571,0.091,0.863-0.091,1,0c0.137,0.091,0.726,0.301,0.5,0
	c-0.226-0.301,0-0.5,0-0.5l0.5-0.5l0,0l0.5,0.5l0,0v0.5h0.5v0.5h0.5c0,0,0.153,0.615,0.5,0.5c0.347-0.115,0.206,0.006,0.5,0
	c0.294-0.006,0.488-0.259,0.5,0c0.012,0.259-0.322,0.212,0,0.5c0.322,0.288,0.5,0.5,0.5,0.5s0.356,0.71,0.5,0.5s0.4,0.156,0.5,0
	c0.1-0.156-0.584,0.156,0,0c0.584-0.156,0.669,0.156,1,0c0.331-0.156,0.441,0.32,0.5,0c0.059-0.32-0.278-0.298,0-0.5
	c0.278-0.202,0.43-0.651,0.5-0.5c0.07,0.151-0.8-0.151,0,0s0.617-0.151,1,0s0.5,0,0.5,0s-0.523,0.656,0,0.5
	c0.523-0.156-0.334,0.193,0.5,0c0.834-0.193,0.5-0.5,0.5-0.5s0.344,0.34,0.5,0c0.155-0.34,0.507-0.312,0.5-0.5
	c-0.007-0.188-0.376-0.348,0-0.5c0.375-0.152,0.15,0.343,0.5,0c0.35-0.343-0.234-0.657,0.5-0.5s0.956-0.238,1,0
	c0.044,0.239-0.354,0.66,0,0.5s0.08,0.069,0.5,0c0.42-0.069-0.222,0.069,0.5,0c0.722-0.069,0.412,0.042,1,0
	c0.588-0.042,0.111,0.096,0.5,0c0.389-0.096,0.5,0,0.5,0V152v-0.5v-1l0,0c0,0-0.624-0.163-0.5-0.5s-0.069-1.007,0-1
	c0.069,0.007,0-0.5,0-0.5l-0.5-1c0,0,0.356-0.946,0-1s-0.398-0.99-0.5-1s-0.433-0.115-0.5-0.5c-0.067-0.385-0.523-0.905-0.5-1
	c0.023-0.095,0.359-0.085,0-0.5c-0.359-0.415-0.176-0.746-0.5-1s-0.731-0.272-0.5-0.5c0.231-0.228-0.057-0.833,0-1
	c0.057-0.167,0.225-0.14,0-0.5c-0.225-0.36-0.911-0.011-0.5-0.5c0.411-0.488,0.261-0.719,0.5-1c0.239-0.281-0.048,0.329,0-0.5
	c0.048-0.829,0.116-1.214,0-1.5c-0.116-0.286-0.502-1.991-0.5-2c0.002-0.009,0-1,0-1s-0.674-0.649-0.5-1
	c0.174-0.351,0.044-1.41,0-1.5s0.044-0.462,0-1c-0.044-0.538-0.038-0.396,0-1c0.038-0.604-0.338-1.095,0-1
	c0.338,0.095,0.369-0.095,0.5,0c0.131,0.095-0.359-0.296,0,0c0.359,0.296,1.002,0.955,1,1c-0.002,0.045,0.473,0.59,0.5,0.5
	c0.027-0.09,0.189-0.138,0.5,0c0.311,0.138-0.369-0.229,0.5,0c0.869,0.229,1.292,0.716,1.5,0.5s0.008,0.015,0.5,0s0.806,0.504,1,0.5
	s0.5,0.5,0.5,0.5s0.349-0.307,0.5,0c0.151,0.308,0.484,0.492,0.5,0.5c0.016,0.008-0.544-0.209,0,0c0.544,0.209,0.981-0.073,1,0
	c0.019,0.073-0.602,0.292,0,0c0.602-0.292,1.305-0.161,1.5-0.5c0.195-0.339-0.253-0.224,0.5-0.5s0.336-0.341,1-0.5
	c0.664-0.159,0.926-1.126,1,0c0.074,1.126-0.101,0.527,0,1c0.101,0.473,0,1,0,1l0.5,0.5h1h0.5c0,0-0.277,0.092,0.5,0
	s0.26-0.294,0.5,0c0.24,0.294,0.5,0.5,0.5,0.5l0.5,0.5c0,0,0.09,0.068,0.5,0c0.41-0.068,0.5,0,0.5,0s0.406,0.54,0.5,0.5
	s0.468-0.398,0.5,0c0.032,0.398-0.533,0.274,0,0.5c0.533,0.226,0.556,0.72,1,0.5s0.191,0.22,0.5,0s0.5-0.5,0.5-0.5
	s0.689-0.486,0.5-0.5s-0.029-0.229,0-0.5s-0.221-0.237,0-0.5c0.22-0.263,0.132-0.619,0.5-0.5s0.322-0.119,0.5,0
	c0.178,0.119,0.357,0.489,0.5,0.5s0.438-0.376,0.5,0c0.062,0.376-0.718,0.56,0,0.5s0.053,0.124,0.5,0c0.447-0.124,0.288,0.39,0.5,0
	c0.211-0.389,0.5-0.5,0.5-0.5l1-1l0.5-1c0,0,0.512-0.523,0.5-0.5s-0.562,0.506,0,0c0.562-0.505,1.11-1.048,1-1
	c-0.11,0.048-0.245,0.463,0,0c0.245-0.463,0.591,0.064,0.5-0.5s-0.182-0.942,0-1s0.371,0.331,0.5,0c0.129-0.331,0.5-0.5,0.5-0.5l0,0
	l0.5-1c0,0,0.294-0.354,0.5-0.5c0.206-0.146,0.384-0.38,0.5-0.5c0.116-0.12,0.365-0.269,0.5-0.5c0.135-0.231,0.318-0.131,0.5-0.5
	c0.181-0.369,0.327-0.175,0.5-0.5c0.173-0.325,0.626-0.173,0.5-0.5c-0.126-0.327,0.098-0.072,0-0.5c-0.098-0.428-0.5-0.5-0.5-0.5v-1
	v-1l0.5-1c0,0,0.066-0.775,0-1c-0.066-0.225,0.428-0.881,0.5-1c0.072-0.119,0.49-0.216,0.5-0.5c0.009-0.284,0.626-0.033,0.5-0.5
	c-0.126-0.467-0.53-0.168,0-0.5c0.53-0.332,0.812-0.64,1-0.5c0.188,0.14,0.5,0,0.5,0s0.139,0.556,0,1c-0.139,0.444,0.194,0.381,0,1
	c-0.194,0.619,0.166,0.895,0,1.5c-0.166,0.604,0.057,0.539,0,1c-0.057,0.461-0.5,1-0.5,1s0.591,0.417,1,0.5
	c0.409,0.083,0.226-0.321,0.5,0c0.274,0.321,0.198,0.232,0.5,0.5c0.302,0.268,0.35,0.422,0.5,0.5c0.15,0.078,0.185,0.403,0.5,0.5
	c0.315,0.097-0.5-0.152,0.5,0c1,0.152,1.235-0.288,1.5,0c0.265,0.288-0.094,0.374,0.5,0.5c0.594,0.126,0.03-0.262,1,0
	c0.97,0.263,1.453,0.519,2,0.5c0.547-0.019-0.013-0.055,0.5,0c0.513,0.055,0.5,0,0.5,0s0.622,0.069,0.5,0.5
	c-0.122,0.431-0.471,0.795,0,1c0.47,0.206,0.417-0.069,1,0c0.583,0.069,0.76,0.013,1,0c0.24-0.013,1-0.5,1-0.5V125h0.5
	c0,0,0.402,0.264,0.5,0c0.098-0.264-0.335-0.387,0-0.5c0.335-0.113,0.5,0,0.5,0s-0.337-0.531,0-0.5c0.337,0.031,0.344,0.061,0.5,0
	c0.156-0.061,0.121,0.088,0.5,0c0.379-0.088,0.071,0.125,0.5,0c0.429-0.125-0.231,0.125,0.5,0c0.731-0.125,0.95-0.012,1,0
	c0.05,0.012,0.429-0.148,0.5,0c0.071,0.148,0.209-0.176,0.5,0c0.291,0.176,0.335,0.017,0.5,0c0.165-0.017,0.725,0.575,0.5,0
	c-0.225-0.575-0.5-1-0.5-1s-0.559,0.36,0,0c0.559-0.36,0.012-0.338,0.5-0.5c0.488-0.162-0.764,0.098,0.5,0c1.264-0.098,1.5,0,1.5,0
	s-0.294-0.188,0,0c0.294,0.188,0.314,0.284,0.5,0.5c0.186,0.216,0.73,0.896,0.5,1c-0.23,0.104-0.688,0.011-0.5,0.5
	c0.188,0.489-0.27,0.955,0,1c0.27,0.045,0.648,0.108,0.5,0.5c-0.148,0.392,0,0.5,0,0.5s0.075,0.067,0,0.5
	c-0.075,0.433-0.598,0.529-0.5,1s-0.5,1-0.5,1l-0.5,0.5c0,0,0.218-0.424,0,0c-0.218,0.424-0.481,0.819-0.5,1s-0.562,0.726-0.5,1
	c0.062,0.274-0.5,1-0.5,1s-0.215,0.148,0,0.5c0.215,0.352-0.008,0.465,0.5,0.5c0.508,0.035,0.5,0,0.5,0s1.068-0.178,1,0
	c-0.068,0.178,0,0.5,0,0.5s0.438,0.546,0.5,0.5s0.5,0.5,0.5,0.5s0.644,0.405,0.5,0.5c-0.144,0.095-0.221,0.211,0,0.5s-0.33,0.8,0,1
	c0.33,0.2,0.479,0.271,0.5,0.5s0.422,0.352,0.5,0.5c0.077,0.148,0.22,0.596,0.5,0.5c0.28-0.096,0.191-0.287,0.5,0
	c0.309,0.287,0.518,0.992,0.5,1c-0.018,0.008-0.356,0.343,0,0.5c0.356,0.157,0.132-0.331,0.5,0c0.367,0.331,0.611,0.587,1,0.5
	s0.826,0.033,1,0s0.352,0.206,0.5,0c0.148-0.206,0.5,0,0.5,0s-0.032-0.396,0,0s0.114,1.037,0,1c-0.114-0.037-0.325,0.288-0.5,0.5
	c-0.175,0.212-0.5,0.5-0.5,0.5L323,143c0,0-0.358,0.401-0.5,0.5c-0.142,0.099-0.5,0.5-0.5,0.5s-0.355,0.124-0.5,0.5
	c-0.145,0.376-0.907,0.876-1,1c-0.093,0.124-0.5,0.5-0.5,0.5s0.477,0.743,0,1s-0.5,1-0.5,1s1.217-0.524,0,0
	c-1.217,0.525-1.5,0.5-1.5,0.5s0.428,0.418,0,0.5c-0.428,0.082-0.834,0.453-1,0.5c-0.166,0.047-0.041,0.288-0.5,0.5
	s-0.995,0.904-1,1s-0.393,0.484-0.5,0.5c-0.107,0.016-0.5,0.5-0.5,0.5s-0.515,0.426,0,0.5s0.064-0.165,0.5,0
	c0.436,0.165,0.053-0.22,0.5,0s0.968-0.009,1,0c0.032,0.009,0.504,0.137,0.5,0c-0.004-0.137,0.448,0.191,0.5,0s0.382-0.046,0.5,0
	c0.118,0.046,0.107,0.544,0.5,0.5c0.393-0.044,0.307-0.321,0.5,0c0.193,0.321,0.497,0.242,0.5,0.5c0.003,0.258-0.96,0.541,0,0.5
	s1.019,0.068,1.5,0c0.481-0.068,0.562-0.014,1,0c0.438,0.014,0.033-0.096,0.5,0s0.5,0,0.5,0s-0.597,0.628,0,0.5s0.887-0.036,2,0
	c1.112,0.036,1.049-0.09,1.5,0c0.451,0.09,0.346-0.2,1,0s1.5,0,1.5,0l0.5,0.5c0,0-0.465-0.294-0.5,0s0,0.5,0,0.5s-0.263-0.332-0.5,0
	c-0.237,0.332-0.453,0.293-0.5,0.5s0,0.5,0,0.5v0.5v0.5c0,0-0.2,0.301,0,0.5c0.2,0.199,0.462,0.282,0.5,0.5
	c0.038,0.218-0.321,0.608,0,0.5c0.321-0.108,0.5,0,0.5,0v0.5c0,0-0.296-0.433,0,0c0.296,0.433,0.267,0.165,0.5,0.5s0.5,0.5,0.5,0.5
	s0.235,0.59,0.5,0.5c0.265-0.09,0.415,0.336,0.5,0c0.085-0.336-0.139,0.247,0-0.5c0.139-0.747-0.522-1.113,0-1.5
	c0.522-0.387,0.5-0.5,0.5-0.5l1-0.5c0,0,0.464-0.51,0.5-0.5c0.036,0.01-0.492-0.636,0-0.5s0.907,0.247,1,0
	c0.093-0.247,0.296-0.617,0.5-0.5c0.204,0.117,0.34,0.211,0.5,0c0.16-0.211,0.5-0.5,0.5-0.5s-0.363-1.048,0-1s-0.174,0.171,0.5,0
	c0.674-0.171,0.459,0.061,1,0c0.541-0.061,1.104-0.249,1,0c-0.104,0.249,0.104,0.713,0,1c-0.104,0.287-0.169,0.02,0,0.5
	c0.169,0.48,0.64,0.855,0.5,1c-0.14,0.146-0.462,0.363,0,0.5c0.462,0.137,1.064,0.389,1,0.5c-0.064,0.111,0,0.5,0,0.5
	s-0.109,0.349,0,0.5c0.109,0.151-0.027,0.172,0,0.5c0.027,0.328,0,0.5,0,0.5s-0.024,0.087-0.5,0.5c-0.476,0.413-1.348,0.785-1.5,1
	c-0.152,0.215-0.001,0.338-0.5,0.5c-0.499,0.162-0.036,0.364-0.5,0.5c-0.464,0.136-0.427,0.353-0.5,0.5s0,0.5,0,0.5
	s0.27,0.469,0.5,0.5c0.23,0.031,0.749-0.195,1,0c0.251,0.195,0.847,0.696,1,0.5c0.153-0.196,0.09,0.251,0.5,0c0.41-0.251,1,0,1,0
	s0.247-0.268,0.5,0s0.5,0.5,0.5,0.5s0.436-0.187,0.5,0c0.064,0.187,0.5,0,0.5,0s-0.286,0.694,0,0.5c0.286-0.194,0.766-0.061,1,0
	c0.234,0.061,0.493-0.326,0.5,0c0.007,0.327-0.472,0.117,0,0.5c0.472,0.383,1.017,0.225,1,0.5s0.479,0.36,0.5,0.5
	c0.021,0.14,0.277,0.642,0.5,0.5c0.223-0.142-0.073,0.115,0.5,0c0.573-0.115,0.734,0.251,1,0s0.231-0.429,0.5-0.5
	c0.269-0.071,0.5-0.5,0.5-0.5s0.167-0.197,0-0.5c-0.167-0.303,0.222-0.186,0-0.5c-0.222-0.314-0.024-0.011,0-0.5
	c0.024-0.489,0.085-0.599,0-1c-0.085-0.401-0.304-0.615-0.5-1c-0.196-0.385-0.166-0.251-0.5-0.5c-0.334-0.249-0.71-0.614-1-0.5
	c-0.29,0.114-0.5,0-0.5,0s0.256,0.352,0,0c-0.256-0.352-0.5-2-0.5-2s-0.162-0.115,0-0.5c0.162-0.385,0.5-1,0.5-1v-0.5
	c0,0-0.126-0.144,0-0.5c0.126-0.356,0.499-0.251,0.5-0.5c0.001-0.249,0.58-0.458,0.5-0.5s0.5-1,0.5-1l0.5-1l0.5-1v-1
	c0,0,0.705-1.059,0.5-1s0-0.5,0-0.5s-0.585-0.991-0.5-1c0.085-0.009,0.061-0.353,0-0.5c-0.062-0.147-0.349-0.033,0-0.5
	c0.348-0.467,1.031-0.848,1-1c-0.031-0.152,0.457-0.247,0.5-0.5c0.043-0.253,0.055-0.501,0.5-0.5c0.444,0.001,0.797,0.054,1,0
	c0.203-0.054,0.54,0.136,1,0s1,0,1,0s0.261-0.617,0.5-0.5c0.239,0.117,0.5,0,0.5,0s-0.171-0.369,0.5-0.5c0.671-0.13,0.418,0.24,1,0
	c0.582-0.24,0.322-0.723,1-0.5s0.573-0.223,1,0c0.426,0.223-0.082-0.169,0.5,0s1,0,1,0s0.232,0.124,0.5,0s1-0.5,1-0.5
	s-0.364-0.554,0-0.5s1-0.5,1-0.5s0.275-0.286,0.5-0.5c0.225-0.214,0.246-0.175,0.5-0.5c0.254-0.325,0.153-1.035,0.5-1
	c0.347,0.036,1,0,1,0V142v-1c0,0,0.128-0.019,0.5,0c0.372,0.019,0.209-0.128,0.5,0c0.291,0.128,0.5,0.5,0.5,0.5s-0.275-0.148,0,0
	s0.241-0.24,0.5,0s1-0.5,1-0.5v-0.5l0.5-0.5c0,0,0.026-0.387,0.5-0.5c0.473-0.113,0.752-0.368,1-0.5
	c0.248-0.132,0.178-0.093,0.5-0.5c0.322-0.407,0.5-0.5,0.5-0.5s0.786-0.872,0.5-1s-0.84-0.824-1-1c-0.16-0.176-0.539-0.031-0.5-0.5
	c0.039-0.469,0.07-1.465,0-1.5c-0.07-0.035-0.401,0.281-0.5,0s-0.308-0.828-0.5-0.5c-0.192,0.329-0.5,0.5-0.5,0.5
	s-0.561,0.196-0.5,0.5s0.769,0.778,0,0.5c-0.769-0.278-1.5-1-1.5-1l-0.5-0.5l-1-0.5h-1l-0.5-0.5c0,0-0.256-0.683-0.5-0.5
	c-0.244,0.183-1,0-1,0l-0.5,0.5v0.5h-1l-0.5-0.5l-1-0.5l-0.5-1v-1v-1l-0.5-1v-1v-1.5l-0.5-0.5l-0.5-1v-0.5l-1-0.5l-0.5-0.5l-0.5-1
	v-1l0.5-0.5l0.5-1l1-1l0.5-0.5c0,0,0.486-0.454,0.5-0.5c0.014-0.046,0.538-0.425,0.5-0.5c-0.038-0.075-0.583,0.249,0,0
	c0.582-0.249,0.807-0.605,1-0.5c0.193,0.105,0.5,0,0.5,0s0.032-0.974,0-1c-0.032-0.026-0.023-0.926,0-1
	c0.023-0.074-0.415-0.305,0-0.5c0.415-0.195,0.056-0.212,0.5-0.5c0.443-0.288,0.173-0.457,0.5-0.5c0.327-0.043,1-0.5,1-0.5
	c0.193-0.092,1-0.5,1-0.5s-0.332-0.075,0-0.5c0.332-0.425,0.5-1,0.5-1s0.01-0.598,0.5-0.5c0.49,0.098,0.807,0.175,1,0
	c0.193-0.175,0.5-0.5,0.5-0.5s0.332-0.829,0.5-1c0.168-0.172,0-0.5,0-0.5V107v-0.5V105c0,0,0.276-0.295,0-0.5
	c-0.276-0.205-0.5-0.5-0.5-0.5s-0.023-0.41,0-0.5c0.023-0.09-0.251-0.435,0-0.5c0.251-0.065,0.5,0,0.5,0v-0.5c0,0-0.163-0.073,0-0.5
	c0.163-0.427,0.471-0.171,0.5-0.5c0.029-0.329,0-0.5,0-0.5l0.5-0.5h0.5l0.5-0.5c0,0,0.475-0.469,0.5-0.5c0.025-0.031,0,0,0,0L368,99
	v-0.5V96v-1.5V93v-0.5l-0.5-1v-2v-2V86c0,0,0.299,0.018,0-0.5c-0.299-0.518-0.5-1.5-0.5-1.5s-0.027-0.521,0-1c0.027-0.479,0-1,0-1
	s0.361-0.517,0.5-0.5c0.139,0.017-0.596,0.038,0,0c0.596-0.038,0.062,0.092,1,0c0.938-0.093,1,0,1,0L370,81l-0.5-1.5
	c0,0-0.391-0.937-0.5-1c-0.109-0.063-0.678-0.807-1-1c-0.322-0.193-0.922-0.479-1-0.5c-0.078-0.021-0.247-0.034-0.5,0
	c-0.254,0.034-0.5,0.5-0.5,0.5l-0.5,0.5c0,0,0.353,0.96,0.5,1c0.147,0.04,0.744-0.051,0.5,0.5c-0.244,0.551,0.271,0.766,0,1
	c-0.271,0.234-0.51,0.708-0.5,1c0.01,0.292-0.645,0.08-0.5,0.5c0.145,0.42,0,0.5,0,0.5L365,83c0,0,0.414,0.693,0,0.5
	s-0.03,0.193-0.5,0s-1-0.5-1-0.5l-0.5-0.5h-0.5L362,82h-0.5v-1h0.5v-0.5c0,0,0.561-1.019,0.5-1c-0.061,0.019,0-0.5,0-0.5
	s-0.172-0.417-0.5-0.5c-0.328-0.083-0.5,0-0.5,0s0.212-0.287,0-0.5c-0.212-0.213,0-0.5,0-0.5L361,76l0.5-0.5V74v-1v-0.5L362,72h0.5
	v-1.5V69v-2v-1l-0.5-0.5c0,0,0.206-0.153,0-0.5c-0.206-0.347-0.466-0.95-0.5-1c-0.034-0.05,0.335-0.376,0-0.5s-0.665-0.201-0.5-0.5
	s0-1,0-1v-1v-1c0,0-0.312-0.336-0.5-0.5c-0.188-0.164-0.41-0.252-0.5-0.5c-0.09-0.248-0.409-0.124-0.5-0.5
	c-0.091-0.376-0.5-0.5-0.5-0.5v-0.5c0,0-0.377-0.309-0.5-0.5c-0.123-0.191,0.068-0.116,0-0.5c-0.068-0.384-0.26-0.924,0-1
	c0.26-0.076,0.303-0.477,0.5-0.5c0.197-0.023,0.493,0.434,0.5,0c0.007-0.434,0-1,0-1s0.038-0.92,0-1c-0.038-0.08,0-0.5,0-0.5
	s-0.205,0.264-0.5,0c-0.295-0.264-0.413-0.262-0.5-0.5c-0.087-0.238-0.575-0.233-0.5-0.5c0.075-0.267,0-1,0-1s-0.603-0.2-0.5-0.5
	c0.103-0.3,0.162-0.253,0-0.5c-0.162-0.247-0.246-0.334-0.5-0.5c-0.255-0.166-0.488,0.248-1,0c-0.512-0.248-0.44,0.221-1,0
	c-0.56-0.221-0.474,0.221-1,0c-0.526-0.221-0.245,0.166-1,0c-0.755-0.166-1.179,0.057-1.5,0c-0.321-0.057-0.722-0.271-1,0
	c-0.278,0.271-0.629,0.155-1,0.5c-0.371,0.345-0.818,0.236-1,0.5c-0.182,0.264,0.084,0.162-0.5,0.5c-0.584,0.338-1.5,1-1.5,1
	s0.315,0.368,0,0.5c-0.315,0.132-1.002,0.349-1,0.5c0.002,0.151-0.264,0.357-0.5,0.5c-0.236,0.143-0.643,0.092-1,0.5
	c-0.357,0.409-0.195,0.236-1,0.5c-0.805,0.264-1.5,0.5-1.5,0.5V55v0.5c0,0-0.273,0.564-0.5,0.5c-0.227-0.064-0.797-0.055-1,0
	c-0.203,0.055-1.01,0.498-1.5,0.5c-0.49,0.002-1,0.5-1,0.5l-0.5,0.5V58c0,0,0.432-0.202,0,0c-0.432,0.202,0.279-0.202-0.5,0
	c-0.779,0.202-0.628-0.147-1,0c-0.372,0.147-0.826,0.154-1,0c-0.174-0.153-0.687-0.6-1-0.5c-0.313,0.101-1.5,0-1.5,0
	s-1.234-0.292-1.5,0c-0.266,0.292-0.895,0.517-1,0.5c-0.105-0.017-0.775-0.174-1,0c-0.225,0.174-0.899,0.488-1,0.5
	c-0.101,0.012-0.905-0.066-1,0c-0.095,0.067-0.73,0.152-1,0c-0.27-0.152-1.591-0.547-1.5-0.5c0.091,0.047-1.5,0-1.5,0
	s-1.096,0.116-1.5,0c-0.404-0.116-0.557-0.075-1,0c-0.443,0.075-1,0-1,0s-0.572,0.332-0.5,0.5c0.072,0.168-0.335,0.367-0.5,0.5
	c-0.165,0.133-0.568,0.785-1,0.5s-0.5-0.5-0.5-0.5v-0.5v-1l-0.5-1l-0.5-1c0,0-0.643-0.446-1-0.5c-0.357-0.054-0.913-0.618-1-0.5
	c-0.087,0.118-0.5,0-0.5,0h-0.5l0,0c0,0,0.064,0.096,0,0.5c-0.064,0.404,0.31,0.212,0,0.5c-0.31,0.288-0.5,0.5-0.5,0.5
	s-0.496,0.491-0.5,0.5c-0.004,0.01-0.5,0-0.5,0h-0.5h-1c0,0-0.319,0.072-1,0c-0.681-0.072-1.505,0.072-2,0
	c-0.496-0.072-0.548,0.099-1,0c-0.452-0.099-0.363,0.099-1,0c-0.637-0.099-0.888-0.092-1.5,0c-0.612,0.092-0.803,0.47-1.5,0.5
	c-0.697,0.03-0.483,0.479-1,0.5c-0.517,0.021-0.882,0.459-1,0.5c-0.118,0.041-0.5,0-0.5,0s0.113-0.32,0-0.5
	c-0.113-0.179,0.495-0.055,0-0.5c-0.495-0.445-0.058,0.019-0.5-0.5c-0.442-0.518-0.756-0.707-1-1c-0.244-0.293-0.272-0.324-0.5-0.5
	c-0.228-0.176,0.022-0.015-0.5,0c-0.522,0.016-1,0-1,0s0.105,0.054,0,0.5s0.351,0.805,0,1c-0.351,0.195-0.5,0.5-0.5,0.5v0.5
	l-0.5,0.5c0,0-0.046,0.112,0,0.5c0.046,0.388,0.008,0.101,0,0.5s0.082,0.2,0,0.5c-0.082,0.301-0.5,0.5-0.5,0.5s0.403,0.081,0,0
	c-0.403-0.081-0.776-0.518-1-0.5c-0.225,0.018-1-0.5-1-0.5s-0.815-0.098-1,0c-0.185,0.098-1,0.5-1,0.5h-0.5c0,0,0.207,0.102,0,0.5
	c-0.207,0.399-0.501,0.209-0.5,0.5s0,0.5,0,0.5s-0.599,0.332-0.5,0.5c0.099,0.168-0.045,0.239,0,0.5c0.045,0.261-0.109,0.301,0,0.5
	c0.109,0.2,0,0.5,0,0.5l0.5,0.5l0.5,0.5v0.5c0,0,0.298,0.534,0,0.5c-0.298-0.034-0.082-0.103-0.5,0c-0.419,0.103-1.488-0.24-1.5,0
	s-0.286-0.212-0.5,0c-0.214,0.212-0.42,0.331-0.5,0.5c-0.08,0.169,0,0.5,0,0.5H286c0,0,0.509,0.065,0,0c-0.509-0.065-1-0.5-1-0.5
	s0.386,0.021,0,0c-0.386-0.021-0.522-0.353-0.5,0c0.022,0.353-0.241,0.771,0,1c0.241,0.229,0.5,1,0.5,1h0.5c0,0-0.301,0.384,0,0.5
	c0.301,0.116,0.58,0.317,0.5,0.5s0,0.5,0,0.5l0.5,0.5c0,0,0.247-0.142,0.5,0c0.253,0.142,0.154-0.361,0.5,0
	c0.346,0.361,0.416,0.429,0.5,0.5c0.084,0.071,0,0.5,0,0.5s0.061,0.614,0,0.5c-0.061-0.115,0,0,0,0s-0.693,0.474-0.5,0.5
	c0.193,0.026,0.5,0,0.5,0s0.289,0.36,0,0.5c-0.289,0.14-0.327-0.132-0.5,0c-0.173,0.132-0.043-0.285-0.5-0.5s-0.868-0.31-1-0.5
	c-0.132-0.19-1-0.5-1-0.5h-0.5c0,0-0.405-0.019-0.5,0c-0.096,0.019,0,0.5,0,0.5s0.347,0.256,0.5,0.5c0.153,0.244,0.41,0.337,0.5,0.5
	s0.5,0.5,0.5,0.5V73h0.5c0,0,0.495,1.026,0.5,1c0.005-0.027-0.042-0.303,0,0c0.042,0.303,0.515,0.414,0,0.5
	c-0.515,0.086-0.174-0.196-0.5,0c-0.326,0.196-1,0.5-1,0.5s-0.249-0.354-0.5,0c-0.251,0.354-0.5,0.5-0.5,0.5s-0.145,0.563-0.5,0.5
	c-0.355-0.063-1.233,0.681-1.5,0.5c-0.267-0.181-0.685-0.065-1,0s-0.92,0.58-1,0.5c-0.08-0.08-0.8-0.002-1,0
	c-0.2,0.002-0.752-0.121-1,0s-0.231,0.605-0.5,0.5s-0.5,0-0.5,0s-0.573,0.354-0.5,0.5c0.073,0.146-0.5,1-0.5,1s0.014,0.457-0.5,0.5
	c-0.514,0.043-0.466-0.097-1,0c-0.534,0.097-0.673-0.179-1,0c-0.327,0.179-0.388-0.206-1,0c-0.613,0.206-0.894-0.015-1,0
	c-0.106,0.015-0.092-0.277-0.5-0.5c-0.408-0.223-0.927-0.194-1-0.5c-0.073-0.306-0.5-1-0.5-1l-0.5-1V75v-1.5c0,0-0.166-0.221,0-0.5
	c0.166-0.279,0-1,0-1l0,0c0,0-0.187,0.092-0.5,0c-0.313-0.092-0.803-0.018-1,0c-0.197,0.018-1.537,0.481-1.5,0.5
	c0.037,0.019-1,0.5-1,0.5s-0.58-0.126-1,0s-0.986-0.235-1.5,0c-0.514,0.235-0.656,0.437-1,0.5c-0.344,0.063-0.046-0.254-0.5,0
	c-0.454,0.254-0.607,0.746-1,0.5c-0.393-0.246-1.5-0.5-1.5-0.5s0.052-0.499-0.5-0.5c-0.552-0.001-1.038-0.415-1-0.5
	s0.41-0.451-0.5-0.5c-0.91-0.049-1.325,0.104-1.5,0c-0.175-0.104-0.432-0.169-0.5,0c-0.068,0.169-0.124,0.257,0,0.5
	c0.124,0.243-0.288,0.201,0,0.5c0.288,0.299,0.5,0.5,0.5,0.5s0.595-0.423,0,0.5c-0.595,0.923-1,1-1,1s0.479,0.266,0,0.5
	c-0.479,0.234-0.083,0.82-0.5,0.5c-0.418-0.32-1-1-1-1s-0.84-0.375-1-0.5c-0.16-0.125-0.609-0.41-1-0.5c-0.391-0.09-1-0.5-1-0.5
	L249,73h-0.5c0,0-0.35-0.231,0-0.5c0.349-0.269,0.5-0.5,0.5-0.5s0.493-0.373,0.5-0.5c0.007-0.127,0.02-0.207,0-0.5
	c-0.021-0.293,0.221-1.243,0-1c-0.221,0.243-0.414-0.434-0.5,0c-0.086,0.434,0,0.5,0,0.5s-0.395,1.089-0.5,1
	c-0.105-0.089-0.5,0.5-0.5,0.5h-0.5l-1-0.5l-1-0.5l-0.5-0.5c0,0,0.326-0.402,0-0.5c-0.326-0.098-0.19-0.319-0.5-0.5
	c-0.31-0.181-0.97-0.126-1-0.5c-0.03-0.374,0-1,0-1v-1c0,0,0.363-0.272,0.5-0.5c0.137-0.228,0.934-1.034,1-1
	c0.066,0.034,0.387,0.395,0.5,0c0.113-0.395-0.195-0.112,0-0.5c0.195-0.388-0.5-1-0.5-1l-4.5-0.5c0,0-1.106-0.573-1.5-0.5
	c-0.394,0.073-0.658,0.063-1,0c-0.342-0.063-1-0.5-1-0.5s-0.299,0.037-0.5,0c-0.201-0.037-0.641-0.044-1,0c-0.359,0.045-1,0-1,0
	L234,63c0,0,0.262,1.088,0,1c-0.262-0.088-0.5,0-0.5,0s-0.189-0.104-0.5,0c-0.311,0.104-0.5,0-0.5,0l-2.5,0.5c0,0,0.063,0.272,0,0.5
	c-0.063,0.228,0.063,0.933,0,1c-0.063,0.067,0.227,0.857,0,1c-0.227,0.142-0.636,0.837-0.5,1s0,1,0,1s0.174,0.966,0,1
	c-0.174,0.034-0.543,0.309-0.5,0.5c0.043,0.191-0.351,0.733-0.5,1c-0.149,0.266-0.486,0.222-0.5,0.5c-0.014,0.277,0.242,0.948,0,1
	c-0.243,0.052-0.5,0.5-0.5,0.5s0.053,0.435,0,0.5c-0.053,0.065,0.281,0.315,0,0.5c-0.281,0.185-1,1-1,1L226,76l-0.5,1v1.5V79
	c0,0-0.034,1.046,0,1.5c0.034,0.454-0.034,1.489,0,1.5c0.034,0.011,0,1.5,0,1.5s-0.061,1.534,0,1.5c0.061-0.034,0.5,1,0.5,1l0.5,1.5
	L227,88l1,1.5l1,1c0,0,0.493,0.785,0.5,1c0.007,0.215-0.154,0.917,0,1c0.153,0.083-0.181,0.559,0,1c0.181,0.441-0.245,0.628,0,1
	c0.245,0.372,0.154,2.024,0,2c-0.154-0.024-0.5,0.5-0.5,0.5s-0.507,0.457-0.5,0.5c0.007,0.043,0.385,0.41,0,0.5
	c-0.385,0.09-0.5,0.5-0.5,0.5s-0.549,0.269-0.5,0.5c0.049,0.231,0.105,0.732,0,1c-0.105,0.268,0.105,1.047,0,1
	c-0.105-0.048,0.297,0.31,0,0.5S227,102,227,102s-0.247,0.625-0.5,0.5c-0.253-0.125,0.082,0.043-0.5,0c-0.582-0.043-0.56-0.124-1,0
	c-0.44,0.124,0.217,0.739-1,0.5c-1.217-0.239-2.125,0.038-2.5,0c-0.375-0.039-0.84-0.043-1,0c-0.16,0.043,0.28-0.098-0.5,0
	c-0.78,0.098-1.373-0.289-1.5,0c-0.127,0.289,0.138,0.273-0.5,0.5c-0.638,0.227-0.386,0.363-1,0.5c-0.614,0.136-0.965,0.727-1.5,0.5
	c-0.535-0.227-0.891,0.053-1,0c-0.109-0.053-0.261-0.111-0.5,0c-0.239,0.111-0.105,0.19-0.5,0c-0.395-0.19-0.578-0.108-0.5-0.5
	c0.078-0.392-0.078-0.396,0-1c0.078-0.604-0.361-0.985,0-1c0.361-0.016,0.028,0.152,0.5,0c0.472-0.152,0.127,0.343,0.5,0
	c0.373-0.344,0.107-0.11,0.5-0.5c0.393-0.39,0.406-0.136,0.5-0.5c0.093-0.364-0.148,0.094,0-0.5c0.148-0.594,0-1,0-1l0,0l-0.5-0.5
	c0,0,0.176-0.601-0.5-0.5c-0.676,0.101-0.522,0.008-1,0c-0.478-0.008-0.029,0.227-0.5,0c-0.471-0.227-0.725-0.28-1-0.5
	c-0.275-0.22-0.169-0.343-0.5-0.5c-0.331-0.157,0.078,0.294-0.5,0s-0.829-0.679-1-0.5c-0.171,0.179,0.155-0.233-0.5,0
	c-0.655,0.233-0.989,0.429-1,0.5c-0.012,0.071,0.468-0.372,0,0c-0.468,0.372-1,1-1,1s0.882,0.137,0,0c-0.882-0.137-1,0-1,0
	s-0.126,0.002-0.5,0c-0.375-0.002-0.322,0.056-1,0c-0.678-0.056-1.083,0.275-1.5,0c-0.417-0.275,0.092-0.479-0.5-0.5
	c-0.592-0.021-0.496,0.458-1,0c-0.504-0.458-1-1-1-1H200l-0.5-1l-1-1c0,0-0.642-0.515-0.5-0.5c0.142,0.015-0.5-0.5-0.5-0.5
	s-0.81-0.975-1-1c-0.19-0.025-0.207,0.079-0.5,0c-0.293-0.079-0.5,0-0.5,0s0.205-0.385-0.5,0c-0.706,0.385-1.083,0.587-1.5,0.5
	c-0.417-0.087-0.535,0.169-1,0c-0.465-0.169-0.321-0.392-1-0.5c-0.679-0.108-1.064,0.244-1.5,0c-0.436-0.245-0.307-0.701-1-0.5
	c-0.693,0.201-1.05-0.228-1.5,0c-0.45,0.228-0.5,1-0.5,1s-0.643,0.39-0.5,0.5c0.143,0.109,0.386,0.399,0,0.5
	c-0.386,0.101-1,0.5-1,0.5H185l0,0l-1,0.5c0,0-0.406-0.197-0.5,0c-0.094,0.197-1,0.5-1,0.5v0.5c0,0-0.548,0.453-0.5,0.5
	c0.048,0.047,0.062,0.295,0,0.5c-0.062,0.204,0,0.5,0,0.5l-0.5,1v0.5v0.5c0,0,0.062-0.342,0,0c-0.062,0.342,0.409,0.239,0,0.5
	c-0.409,0.261-0.5,0.5-0.5,0.5s-0.487-0.219-0.5,0c-0.013,0.219-0.467,0.635-0.5,0.5c-0.033-0.135-0.5,0-0.5,0V101
	c0,0-0.252,0.229-0.5,0c-0.248-0.229-0.5,0-0.5,0s-0.185-0.299-0.5,0c-0.315,0.299-1,0.5-1,0.5s-0.19,0.091-0.5,0
	c-0.31-0.091-0.5-0.5-0.5-0.5s-0.334-0.359-0.5-0.5c-0.166-0.142-0.223-0.412-0.5-0.5c-0.277-0.088-0.194,0.307-0.5,0
	c-0.306-0.307-0.974-0.283-1-0.5c-0.026-0.217-0.363-0.418-0.5-0.5c-0.137-0.082,0.12,0.273-0.5,0c-0.62-0.273-1-0.5-1-0.5
	s-0.06,0.403,0,0c0.06-0.403,0.213-0.75,0-1c-0.213-0.25-0.449-0.231-0.5-0.5c-0.051-0.269-0.168-0.247,0-0.5
	c0.168-0.253,0.586-0.345,0.5-0.5c-0.086-0.155,0.387-0.289,0-0.5c-0.387-0.211-0.229-0.579-0.5-0.5c-0.271,0.079-0.5,0-0.5,0
	s-0.093-0.303,0-0.5c0.093-0.198,0.625-0.292,0.5-0.5c-0.125-0.208-0.012-0.316,0-0.5c0.012-0.184,0-0.5,0-0.5s0.07-0.976,0-1
	c-0.07-0.024,0.452-0.556,0-0.5c-0.452,0.056-0.618-0.455-1-0.5c-0.382-0.045-1-0.5-1-0.5s-0.347-0.19-0.5,0
	c-0.153,0.19-0.2,0.281-0.5,0.5c-0.3,0.219-1.251,0.934-1.5,1c-0.249,0.066-0.031,0.251-0.5,0.5c-0.469,0.249-0.547,0.614-1,0.5
	c-0.453-0.114-1.417,0.223-1.5,0c-0.083-0.224-0.106-0.275-0.5-0.5c-0.394-0.225-1-1-1-1l-0.5-1l-0.5-1l-0.5-1h-1
	c0,0-0.975-0.472-1-0.5c-0.025-0.028-1.5,0-1.5,0v-0.5c0,0-1.005-0.968-1-1c0.005-0.032-0.349-0.011-0.5-0.5
	c-0.151-0.489-0.42-1.074-0.5-1c-0.08,0.074,0.083,0.291-0.5,0c-0.583-0.291-0.297-0.737-1-0.5c-0.703,0.237-1,0.5-1,0.5H152l-1,0.5
	c0,0,0.402-0.294,0,0c-0.402,0.294-0.714,0.46-1,0.5s-1,0-1,0s-0.254-0.204-0.5,0c-0.246,0.204-0.5,0-0.5,0l-1-0.5
	c0,0-0.346-0.746-0.5-0.5c-0.154,0.246,0.092-0.219-0.5,0c-0.592,0.219-0.806,0.553-1,0.5c-0.194-0.053-0.395-0.185-0.5,0
	c-0.105,0.185-0.366,0.542-0.5,0.5c-0.134-0.042-0.238-0.095-0.5,0c-0.262,0.095-1.452,0.078-1.5,0c-0.049-0.078-0.149,0.078-0.5,0
	c-0.351-0.078-0.928,0.215-1.5,0c-0.572-0.215-0.417,0.242-1,0c-0.583-0.242-0.615-0.512-1-0.5c-0.385,0.012-0.031,0.271-0.5,0
	c-0.469-0.271-0.757-0.647-1-0.5c-0.243,0.147-1.5,0-1.5,0s-0.714-0.48-1-0.5c-0.286-0.02-0.511,0.184-1,0c-0.489-0.184-2.5-2-2.5-2
	v-1V81l-0.5-0.5l-0.5-0.5l0,0c0,0-0.213-0.468,0-0.5s0.34,0.424,0.5,0c0.16-0.424,0-0.5,0-0.5l0.5-0.5c0,0-0.272-0.307,0-0.5
	c0.272-0.193,0.336-0.506,0.5-0.5c0.164,0.006,0.307,0.213,0.5,0c0.193-0.213,0.142-0.44,0.5-0.5s-0.051,0.397,0.5,0
	c0.551-0.397,0.5-0.5,0.5-0.5s0.602-0.573,0.5-0.5c-0.102,0.073-0.5-0.5-0.5-0.5l-1-0.5c0,0,0.507-0.456,0-0.5
	c-0.507-0.044-1.309,0.153-1.5,0c-0.191-0.153-0.5,0-0.5,0l0,0c0,0-0.041,0.67-0.5,0.5s-0.421,0.279-1,0
	c-0.58-0.279-0.601-0.438-1-0.5c-0.399-0.062-1-0.5-1-0.5s0.285-1.08,0-1c-0.285,0.08,0-1,0-1v-0.5L127,71l-0.5-0.5V70l-0.5-0.5
	c0,0-0.334-0.544-0.5-0.5s-0.977,0.23-1,0c-0.023-0.23-0.5-1-0.5-1l-0.5-0.5l-1-0.5c0,0-0.534-0.12-0.5-0.5
	c0.034-0.38,0.239-0.127,0-0.5c-0.239-0.373-0.597-0.687-0.5-1c0.097-0.313,0.368-0.167,0-0.5c-0.368-0.333-0.14-0.629-0.5-1
	c-0.36-0.371-1-0.5-1-0.5s-0.3-0.691-0.5-0.5c-0.2,0.192-0.5,0.5-0.5,0.5h-0.5c0,0,0.431-0.212,0,0
	c-0.431,0.212-0.076,0.612-0.5,0.5c-0.424-0.112-0.564,0.057-1,0c-0.436-0.057-0.581,0.057-1,0c-0.419-0.057-0.968,0.002-1.5,0
	c-0.532-0.002-0.73,0.084-1,0c-0.27-0.084-1,0-1,0l-2-1.5c0,0-0.866-0.236-1-0.5c-0.134-0.264-0.091-0.162-0.5-0.5
	c-0.409-0.338-0.5-0.5-0.5-0.5s0.182-0.784,0-1c-0.182-0.216,0.447-0.219,0-0.5c-0.447-0.281-0.86-0.309-1-0.5
	c-0.14-0.191-0.205-0.344-0.5-0.5c-0.296-0.156-0.803-0.544-1-0.5c-0.197,0.044,0.146-0.204-0.5-0.5c-0.646-0.295-0.553-0.404-1-0.5
	c-0.448-0.096-0.641-0.33-1-0.5c-0.359-0.17-0.728-0.639-1-0.5c-0.272,0.139-0.19-0.303-0.5,0c-0.31,0.303-0.025,0.424-0.5,0.5
	c-0.475,0.076-1,0.5-1,0.5s-0.258,0.114-0.5,0s-0.5,0-0.5,0S99.254,57.093,99,57c-0.254-0.093-0.68,0.011-1,0s-0.712,0.011-1,0
	s-1,0-1,0l-0.5,0.5c0,0-0.425-0.254-0.5,0c-0.075,0.254-0.085,0.582-0.5,0.5s-0.793,0.028-1,0s-0.399,0.082-1,0s-0.569,0.164-1,0
	c-0.431-0.164-1,0-1,0H90c0,0-0.118,0.69-0.5,0.5c-0.382-0.19-0.488-0.509-1-0.5c-0.512,0.009-1,0-1,0s0.192-0.805-0.5-1
	c-0.692-0.195-1.351-0.003-1.5-0.5C85.351,56.003,85,56,85,56s-0.384-0.246-0.5-0.5c-0.116-0.254-0.863-0.309-1-0.5
	c-0.137-0.191,0.212-0.617-0.5-0.5c-0.712,0.117-1.158,0.238-1.5,0c-0.342-0.238-1.5-1-1.5-1s-0.514,0.113-1,0
	c-0.486-0.113-0.394-0.45-1-0.5c-0.606-0.05-0.738,0.296-1,0s-0.59-0.54-1-0.5c-0.41,0.04,0.148,0.124-0.5,0
	C74.852,52.376,74,52,74,52l-0.5-1v-1c0,0,0.561-0.284,0.5-0.5c-0.061-0.216,0.494-0.28,0.5-0.5c0.006-0.22,0.5-0.5,0.5-0.5
	s1.377-1.046,1.5-1c0.123,0.046,0.384-0.57,0.5-0.5c0.116,0.071,0.5-0.5,0.5-0.5s0.216-0.092,0.5-0.5c0.284-0.408,0.652-0.689,0.5-1
	c-0.152-0.311,0.234-0.895,0-1c-0.234-0.105-0.5-0.5-0.5-0.5v-1l-1-1V40l-0.5-1l0.5-1v-1c0,0,0.692-0.189,0.5-0.5
	c-0.192-0.311,0.5-1,0.5-1l0.5-0.5c0,0-0.184-0.127,0-0.5c0.184-0.373,0.5-1,0.5-1V32v-1.5c0,0-0.989-1.023-1-1s-0.65,0.169-1,0
	c-0.35-0.169-0.62-0.077-1,0c-0.38,0.077-0.918,0.513-1,0.5s0.011,0.04-0.5,0c-0.511-0.04-1.5-0.5-1.5-0.5l0,0
	c0,0-0.282,0.341-0.5,0.5c-0.218,0.159-0.563,0.439-0.5,0.5c0.063,0.061,0.592,0.338,0,0.5c-0.592,0.162-0.56,1.063-1,1
	c-0.44-0.063-0.086-0.128-0.5,0c-0.414,0.128-1,0-1,0s-0.508,0.09-1.5,0c-0.992-0.09-1.396,0.063-2,0c-0.604-0.063-0.894-0.21-1,0
	c-0.106,0.21-0.593,0.179-0.5,0.5c0.093,0.321-0.274,0.16-0.5,0.5c-0.226,0.34-0.571,0.496-1,0.5c-0.429,0.004-0.76,0.242-1,0
	s-0.186-0.911-0.5-1c-0.314-0.089-0.485-0.117-0.5-0.5c-0.015-0.383,0.553-0.171,0-0.5c-0.553-0.329-0.654-0.452-1-0.5
	c-0.346-0.048-1,0-1,0S58.344,30.913,58,31z"/>
</svg>
