<svg id="组_1" data-name="组 1" xmlns="http://www.w3.org/2000/svg" width="357.125" height="400.75" viewBox="0 0 357.125 400.75">
  <metadata><?xpacket begin="﻿" id="W5M0MpCehiHzreSzNTczkc9d"?>
<x:xmpmeta xmlns:x="adobe:ns:meta/" x:xmptk="Adobe XMP Core 5.6-c138 79.159824, 2016/09/14-01:09:01        ">
   <rdf:RDF xmlns:rdf="http://www.w3.org/1999/02/22-rdf-syntax-ns#">
      <rdf:Description rdf:about=""/>
   </rdf:RDF>
</x:xmpmeta>
                                                                                                    
                                                                                                    
                                                                                                    
                                                                                                    
                                                                                                    
                                                                                                    
                                                                                                    
                                                                                                    
                                                                                                    
                                                                                                    
                                                                                                    
                                                                                                    
                                                                                                    
                                                                                                    
                                                                                                    
                                                                                                    
                                                                                                    
                                                                                                    
                                                                                                    
                                                                                                    
                           
<?xpacket end="w"?></metadata>
<defs>
    <style>
      .cls-1 {
        fill-rule: evenodd;
      }
    </style>
  </defs>
  <path id="形状_1_拷贝_4" data-name="形状 1 拷贝 4" class="cls-1" d="M185,368c0.3,0.9,5.924,13.334,7,15s4.782,8.721,6,11,10.173,15.967,11,18a7.382,7.382,0,0,0,8,5c5.222-.4,8.831.252,11-3,3.643-5.461,4.509-4.217,4-6s-4.508-23.467-7-24-7.129,1.263-9,0-7.552-9.337-8-12-1.622-5.977,0-7,24-9,24-9l-7-11s-39.88,20.338-40,21A3.222,3.222,0,0,0,185,368Z" transform="translate(-21.875 -16.5)"/>
  <path id="形状_6" data-name="形状 6" class="cls-1" d="M185,366l25-13-11-17V316l-6-7-16,13,6,16-11,6,3,7Z" transform="translate(-21.875 -16.5)"/>
  <path id="形状_7" data-name="形状 7" class="cls-1" d="M225,345l7,11,11-6-1-15-24-29,1-5-6-8-20,16Z" transform="translate(-21.875 -16.5)"/>
  <path id="形状_4" data-name="形状 4" class="cls-1" d="M134,313l20-10-20-20-7-3-8-5-9,7-6-4-6,5Z" transform="translate(-21.875 -16.5)"/>
  <path id="形状_5" data-name="形状 5" class="cls-1" d="M125,352s13.686-2.955,17-2,8.514,5.911,11,6,22-5,22-5l-3-7s10.677-4.943,12-5-7-17-7-17,14.958-11.267,16-13c0.693-.919-2.186-19.721-3-21s-23-1-23-1l-2,25-11-10-20,11,15,13a138.28,138.28,0,0,1-11,14A120.34,120.34,0,0,1,125,352Z" transform="translate(-21.875 -16.5)"/>
  <path id="形状_1_拷贝_3" data-name="形状 1 拷贝 3" class="cls-1" d="M162,205c-0.9-.128-15.289-1.946-17-3s-2.178-3.926-4-4-8.685,7.321-11,10-2.218,6.133-6,6-5.765-2.266-8-2-3.943,1.811-8,1-5.832-1.833-7-3-3.534-3.98-6-4-10.08.144-9-3-0.2-7.6-3-6-6.658,7.537-8,7-4.131-4.624-11-3-8.369,3.405-9,4,3.483,4.069,1,5-8.071,4.035-8,5,1.943,5.4,0,7-2.52-5.979-5-5-22.909,13.57-21,16,5.883,5.388,7,5,2.436-1.136,4,1,0.591,4.243,2,6,5.544,6.383,7,6,1.775-1.127,3,0,4.161,0.846,5,3,6.592,16.09,8,19,7.912,14.026,6,15-3.418,1.778-3,4,2.668,9.738,4,10,5.552,3.364,4,6-0.56,6.543-1,9-2.332,11.017-2,15,2.877,9.643,3,11,2.293,12.249,4,13,30.154,1.38,41-1,15-5,15-5,22-23.048,21-24-45-37-45-37l-6-6,5-4,5,4,10-7,18,11,12-5V257l22-3-4-21s-3.872-8.735-4-15S162.9,205.128,162,205Z" transform="translate(-21.875 -16.5)"/>
  <path id="形状_3" data-name="形状 3" class="cls-1" d="M165,313s0.817-24.651,3-25,22,0,22,0l-3-33,11-1s-1.686-20.075-3-20-28-1-28-1l3,21c-0.985.563-20.156,2.156-21,3s1.536,24.894-1,25-12.959,4.1-11,6S165,313,165,313Z" transform="translate(-21.875 -16.5)"/>
  <path id="形状_2" data-name="形状 2" class="cls-1" d="M219,303c-0.121-5.167,28.259-42.737,31-46s15.284-22.6,19-27c0.861-1.02,2.466-3.416,4.5-6.564C265.4,220.8,259.056,189.156,255,189c-1.311-.05-9.389,5.891-23,8-1.146.178-2.482-2.722-4-3-0.947-.174-2.013,2.47-3,2-3.412-1.626-7.114-4.71-12-6-7.575-2-21.206-1.191-22,0-1.667,2.541,2.477,14.962,0,15-16.643.254-30.029-.042-29,0,0.855,0.035-.178,29.106,5,29,1.7-.035,26.039.3,27,1s4.533,18.039,2,19c-0.542.206-8.913,0.389-9,1s1.633,45.322,6,54c1.652,3.282,19.633-17.46,21.035-14.781C216.942,299.773,219.011,303.473,219,303Zm-20,15-1,17,12,19,15-9-26-29v2Z" transform="translate(-21.875 -16.5)"/>
  <path id="形状_1_拷贝_2" data-name="形状 1 拷贝 2" class="cls-1" d="M242,107c-1.058-1.235-17.843-1.535-18-3s4.236-8.4-1-10-16-1-16-1,1.96-13.219-1-14-9.313.323-11,2-3.8,6-7,6-15.943.676-17,0,0.57-8.164-2-8-11.707.185-17-3-8.493-6.3-10-4-2.58,19.563-2,27,5.054,51.1,10,56,8.131,19.958,9,26,3.694,23.306,3,24,30.124,0.583,30-1c-0.157-2-2.563-12.837-1-13s19.538-1.366,22,0,11.84,6.7,13,6,1.721-3.837,1-5-2.072-6.9-1-8,4.106-3.521,4-6,0.928-12.675-1-13-11.843.884-12,0,0.277-16.008,2-17,7.959-.126,10-1,7.053-7.454,9-8,7.146,0.074,9-2,6.03-8.254,5-9-10.063-4.139-10-5S243.058,108.235,242,107Z" transform="translate(-21.875 -16.5)"/>
  <path id="形状_1_拷贝" data-name="形状 1 拷贝" class="cls-1" d="M244,107c2.621,0.547,8.752-1.9,10-2s0.509-2.465,0-3-0.437-4.733,1-8,4.507,0.565,7,2,2.37,8.967,3,9,7.746-13.812,10-17,18-16,18-16a6.9,6.9,0,0,0,0-3c0.126-8.678,17.165-25.77,18-27s-7-21-7-21a25.94,25.94,0,0,1,3-4c1.153-1.028,3.84-.286,6,1s9.63-.7,12-1c1.775-.223,1.188,6.145,2,9s6.374,7.768,9,9,1.028,3.127,1,5,13.183,11.04,15,13,5.734-1.473,7-2,3.485,1.136,7,2,7.082-.986,9-1,3.928,1.841,4,6-4.091,4.49-4,8-2.162,5.382-3,7,0.594,4.23-2,6-9,3.1-9,9,6,12.252,6,18-4,6.312-4,8,13.37,13.416,14,16,2.05,4.6,2,7-5.309,8.688-8,11-21.305,17.3-25,20-11.164,4.487-13,5-7.787,5.456-11,7-14.935,1.5-19,2-4.827,4.983-7,8c-5.7,5.575-18.284,27.6-22,32s-6.545-4.6-8-7-7.686-25.946-11-25-11.852,4.4-15,5-7.226,3.065-9,2c-0.811-.487-2.787-0.684-4-3a24.461,24.461,0,0,1-2-9c0.112-2.347,3.535-2.156,4-6s0.933-14.7-2-14c-4.4,1.052-11.1,2.289-11,0s-0.783-16.442,3-18,9.483,0.048,11-1,6.2-7.252,8-8,6.429-.185,8-1,6.289-8.944,5-9-8.555-4.021-9-5S241.379,106.453,244,107Z" transform="translate(-21.875 -16.5)"/>
</svg>
