<svg xmlns="http://www.w3.org/2000/svg" width="357.125" height="400.75" viewBox="0 0 357.125 400.75">
  <metadata><?xpacket begin="﻿" id="W5M0MpCehiHzreSzNTczkc9d"?>
<x:xmpmeta xmlns:x="adobe:ns:meta/" x:xmptk="Adobe XMP Core 5.6-c138 79.159824, 2016/09/14-01:09:01        ">
   <rdf:RDF xmlns:rdf="http://www.w3.org/1999/02/22-rdf-syntax-ns#">
      <rdf:Description rdf:about=""/>
   </rdf:RDF>
</x:xmpmeta>
                                                                                                    
                                                                                                    
                                                                                                    
                                                                                                    
                                                                                                    
                                                                                                    
                                                                                                    
                                                                                                    
                                                                                                    
                                                                                                    
                                                                                                    
                                                                                                    
                                                                                                    
                                                                                                    
                                                                                                    
                                                                                                    
                                                                                                    
                                                                                                    
                                                                                                    
                                                                                                    
                           
<?xpacket end="w"?></metadata>
<defs>
    <style>
      .cls-1 {
        fill-rule: evenodd;
      }
    </style>
  </defs>
  <path id="形状_1" data-name="形状 1" class="cls-1" d="M304,21s7.835,19.77,7,21-17.874,18.322-18,27a6.9,6.9,0,0,1,0,3s-15.746,12.812-18,16-9.37,17.033-10,17-0.507-7.565-3-9-5.563-5.267-7-2-1.509,7.465-1,8,1.248,2.9,0,3-9.379,2.547-12,2-17.843-1.535-18-3,4.236-8.4-1-10-16-1-16-1,1.96-13.219-1-14-9.313.323-11,2-3.8,6-7,6-15.943.676-17,0,0.57-8.164-2-8-11.707.185-17-3-8.493-6.3-10-4-2.58,19.563-2,27,5.054,51.1,10,56,8.131,19.958,9,26,5.688,24.11,3,24-15.289-1.946-17-3-2.178-3.926-4-4-8.685,7.321-11,10-2.218,6.133-6,6-5.765-2.266-8-2-3.943,1.811-8,1-5.832-1.833-7-3-3.534-3.98-6-4-10.08.144-9-3-0.2-7.6-3-6-6.658,7.537-8,7-4.131-4.624-11-3-8.369,3.405-9,4,3.483,4.069,1,5-8.071,4.035-8,5,1.943,5.4,0,7-2.52-5.979-5-5-22.909,13.57-21,16,5.883,5.388,7,5,2.436-1.136,4,1,0.591,4.243,2,6,5.544,6.383,7,6,1.775-1.127,3,0,4.161,0.846,5,3,6.592,16.09,8,19,7.912,14.026,6,15-3.418,1.778-3,4,2.668,9.738,4,10,5.552,3.364,4,6-0.56,6.543-1,9-2.332,11.017-2,15,2.877,9.643,3,11,2.293,12.249,4,13,30.154,1.38,41-1,25.256-5.4,30-4,3.663,4.472,8,5,21.562-5.737,23-4,8.735,11.17,10,16,5.924,13.334,7,15,4.782,8.721,6,11,10.173,15.967,11,18a7.382,7.382,0,0,0,8,5c5.222-.4,8.831.252,11-3,3.643-5.461,4.509-4.217,4-6s-4.508-23.467-7-24-7.129,1.263-9,0-7.552-9.337-8-12-1.622-5.977,0-7,34.273-10.827,35-15-1.784-17.068-4-20-19.879-21.833-20-27,28.259-42.737,31-46,15.284-22.6,19-27,21.3-34.425,27-40c2.173-3.017,2.935-7.5,7-8s15.787-.456,19-2,9.164-6.487,11-7,9.305-2.3,13-5,22.309-17.688,25-20,7.95-8.6,8-11-1.37-4.416-2-7-14-14.312-14-16,4-2.252,4-8-6-12.1-6-18,6.406-7.23,9-9,1.162-4.382,2-6,3.091-3.49,3-7,4.072-3.841,4-8-2.082-6.014-4-6-5.485,1.864-9,1-5.734-2.527-7-2-5.183,3.96-7,2-15.028-11.127-15-13,1.626-3.768-1-5-8.188-6.145-9-9-0.225-9.223-2-9c-2.37.3-9.84,2.286-12,1s-4.847-2.028-6-1A25.94,25.94,0,0,0,304,21Z" transform="translate(-21.875 -16.5)"/>
</svg>
