<?xml version="1.0" encoding="UTF-8"?>
<svg width="501px" height="417px" viewBox="0 0 501 417" version="1.1" xmlns="http://www.w3.org/2000/svg" xmlns:xlink="http://www.w3.org/1999/xlink">
    <!-- Generator: Sketch 51.3 (57544) - http://www.bohemiancoding.com/sketch -->
    <title>chian2</title>
    <desc>Created with Sketch.</desc>
    <defs></defs>
    <g id="Page-1" stroke="none" stroke-width="1" fill="none" fill-rule="evenodd">
        <g id="chian2">
            <g id="area">
                <polygon id="Shape" points="126 44 130 46 133 45 134 42 159 62 159 65 161 65 161 69 163 73 163 80 158 86 158 89 163 91 168 95 178 96 190 106 195 107 193 110 197 111 197 119 200 124 219 130 232 132 241 132 246 137 262 144 266 142 270 144 275 144 291 135 309 136 317 129 328 119 322 116 328 104 334 107 341 107 348 100 352 101 361 96 364 87 367 87 372 84 386 83 389 80 385 74 372 68 367 74 363 71 357 73 353 71 362 47 369 51 377 45 380 41 377 39 388 18 385 12 382 14 381 10 389 3 403 0 412 2 415 0 419 3 423 4 426 12 430 16 431 22 441 32 441 36 453 41 456 39 466 45 467 49 470 50 472 56 476 56 488 46 491 46 495 41 501 39 498 47 501 52 497 54 498 58 498 70 495 76 496 79 494 83 490 83 485 80 482 88 484 93 484 109 482 114 475 111 475 117 470 118 470 123 466 123 461 125 464 131 457 134 454 130 449 137 448 142 431 158 425 158 418 166 411 164 411 152 406 148 400 157 395 162 393 168 386 171 378 171 378 179 381 182 385 184 394 187 391 190 397 194 406 184 417 188 425 185 425 194 412 197 411 202 398 212 398 216 402 222 407 222 412 228 411 232 416 236 419 244 427 249 419 252 427 258 426 262 419 271 427 270 432 274 429 276 429 285 428 292 422 297 422 305 419 306 417 315 413 312 415 325 406 331 404 339 399 342 393 350 388 350 380 360 373 360 364 364 359 366 354 364 350 364 351 368 347 368 345 372 341 372 339 377 335 374 330 377 326 377 323 380 318 378 319 381 316 384 320 387 319 390 314 388 311 384 314 379 314 375 310 376 307 379 304 374 302 377 299 372 298 376 290 377 279 371 278 364 280 362 270 361 267 357 263 359 262 364 257 364 251 367 246 366 245 363 241 367 236 364 229 367 229 380 219 374 214 376 210 373 205 366 201 366 203 355 199 352 197 344 185 345 187 338 186 333 195 324 201 318 199 304 195 299 196 296 192 293 185 299 175 294 160 296 149 303 136 303 131 290 117 283 104 290 101 283 91 284 85 279 76 279 68 270 62 261 53 252 39 238 33 241 16 220 19 207 25 208 28 189 22 182 23 172 16 169 7 162 9 153 3 146 0 143 5 142 6 130 4 126 0 124 3 116 6 110 12 109 19 108 27 111 34 106 40 108 45 109 59 104 65 103 67 96 73 92 74 87 73 82 73 70 86 71 92 74 93 69 105 60 120 56 124 52"></polygon>
            </g>
            <g id="blocks" fill-rule="nonzero">
                <polygon id="新疆" fill="#0071BC" points="91 189 77 189 72 186 67 185 63 181 55 186 52 183 42 180 36 189 27.435 188.341 22 182 23 172 16 169 7 162 9 153 3 146 0 143 5 142 6 130 4 126 0 124 3 116 6 110 12 109 19 108 27 111 34 106 40 108 45 109 59 104 65 103 67 96 73 92 74 87 73 82 73 70 86 71 92 74 93 69 105 60 120 56 124 52 126 44 130 46 133 45 134 42 159 62 159 65 161 65 161 69 163 73 163 80 158 86 158 89 163 91 168 95 178 96 190 106 195 107 193 110 197 111 197 119 200 124 197 136 185 136 172 149 171 163 160 166 144 166 140 171 144 181 140 188 141 193 126 193 121 189 111 186 105 188 101 186"></polygon>
                <polygon id="西藏" fill="#29ABE2" points="201 293 202 288 205 285.692 205 275 203 266 203 260 200 252 200 247 195.701 243.657 196 245 185 255 175 251 173 243 155 237 138 228 131 228 125 206 131 198 127 193 126 193 121 189 111 186 105 188 101 186 91 189 77 189 72 186 67 185 63 181 55 186 52 183 42 180 36 189 27.435 188.341 28 189 25 208 19 207 16 220 33 241 39 238 53 252 62 261 68 270 76 279 85 279 91 284 101 283 104 290 117 283 131 290 136 303 149 303 160 296 175 294 185 299 192 293 196 296 195.316 298.053 198 296"></polygon>
                <polygon id="青海" fill="#662D91" points="242 219 246 214 251 206 245 199 244 190 234 188 233 184 227 179 224 172 216 172 210 169 204 169 198 168 194 171 174 161 171 163 160 166 144 166 140 171 144 181 140 188 141 193 127 193 131 198 125 206 131 228 138 228 155 237 173 243 175 251 185 255 196 245 194 236 206 235 211 237 219 237 226 245 231 239 235 241 243 236 237 232 238 226"></polygon>
                <polygon id="甘肃" fill="#D9E021" points="197 136 185 136 172 149 171 163 174 161 194 171 198 168 204 169 210 169 216 172 224 172 227 179 233 184 234 188 244 190 245 199 251 206 246 214 242 219 238 226 237 232 240.577 234.385 243 233 242 230 243 229 246 228 249 232 252 236 257 237 260 238 260 245 264 248 268 249 271 249 275 244 274 240 275 237 280 238 281 235 281 232 283 230 280 226 281 222 284 220 286 224 290 223 293 219 300 217 300 206 297 204 292 201 287 200 282 200 280 205 283 213 277 217 271 212 271 206 266 196 258 191 256 184 262 176 262 172 256 170 249 173 243 173 241 176 238 176 229 170 228 165 225 161 228 155 225 150 212 152 210 149 206 143 207 138 206 132 204 126 204.353 125.375 200 124"></polygon>
                <polygon id="内蒙古" fill="#FCEE21" points="206 132 207 138 206 143 210 149 212 152 225 150 228 155 225 161 228 165 229 170 238 176 241 176 243 173 249 173 256 170 262 172 262 176 256 184 258 191 264.4 195 274 191 277 181 283 168 284 178 280 182 283 186 286 185 290 192 301 193 304 187 306 181 311 176 320 171 323 174 333 163 345 158 345 152 343 148 352 137 356 139 357 143 360 140 362 141 369 137 371 132 374 130 382 130 382 138 384 144 389 144 391 132 394 132 397 136 414 124 425 116 417 103 412 106 409 96 404 89 405 87 409 87 415 84 414 81 417 77 413 76 410 73 408 70 418 62 419 57 422 56 423 51 425 50 425 45 427 28 424 21 421 21 416 25 409 27 406 27 400 14 394 16 393 13 391 13 393 11 393 5 389 3 381 10 382 14 385 12 388 18 377 39 380 41 377 45 369 51 362 47 353 71 357 73 363 71 367 74 372 68 385 74 389 80 386 83 372 84 367 87 364 87 361 96 352 101 348 100 341 107 334 107 328 104 322 116 328 119 317 129 309 136 291 135 275 144 270 144 266 142 262 144 246 137 241 132 232 132 219 130 204.353 125.375 204 126"></polygon>
                <polygon id="宁夏" fill="#29ABE2" points="261.848 193.405 266 196 271 206 271 212 277 217 283 213 280 205 282 200 287 200 288.786 200.357 288 198 290 192 286 185 283 186 280 182 284 178 283 168 277 181 274 191 264.4 195"></polygon>
                <polygon id="四川" fill="#8CC63F" points="315 259 309 260 307.8 258.2 307 259 301 256 297 256 294 256 290 251 286 251 284 248 277 249 273.897 245.379 275 244 271 249 268 249 264 248 260 245 260 238 257 237 252 236 249 232 246 228 243 229 242 230 243 233 240.577 234.385 243 236 235 241 231 239 226 245 219 237 211 237 206 235 194 236 195.701 243.657 200 247 200 252 203 260 203 266 205 275 205 286 204.429 286.571 205 294 207 298 212 294 216 295 215 298 215 301 219 301 222 303 222 306 224 308 226 314 229 319 228 321 232 324 236 321 239 322 243 320 242 318 243 312 249 307 249 301 251 297 257 294 259 297 259 300 260 303 262 306 266 303 270 307 274 307 276 305 271 301 272 298 279 294 283 298 283 294 287 290 296 291 300 292 305 301 307 300 308 291 305 288 300 283 301 276 312 272 315 270 316 264"></polygon>
                <path d="M378.042509,171 L378.042509,177.956241 L378,177.956241 L378,179 L381,182 L382.852,182.926 L379,185 L373,187 L365,198 L358,207 L355.565,207.913 L351,207 L347,205 L345,205 L344,202 L348,197 L347,187 L343,184 L344,181 L347,174 L351,174 L351,172 L347,166 L348,162 L347,156 L345,156.25 L345,152 L343,148 L352,137 L356,139 L357,143 L360,140 L362,141 L369,137 L371,132 L374,130 L382,130 L382,138 L384,144 L389,144 L390,146 L389,153 L396,154 L398.545,158.455 L395,162 L393,168 L386,171 L383.687669,171 L381.475306,169.210781 L382.428281,166.627314 L380.103926,165.595736 L379.224163,162.007471 L381.015861,162.007471 L381.015861,160.67435 L379.15582,158.856045 L377.652769,159.454839 L376.145254,160.711912 L375.536254,160.82838 L375.536254,162.632122 L374.934906,165.595736 L373.577048,164.68204 L373.361409,164.911323 L372.167452,166.627314 L372.92218,172.051273 L371.412028,173.938094 L372.92218,176.920837 L374.934906,177.956241 L378,177.956241 L378,171 L378.042509,171 Z M373.577048,164.68204 L373.630999,164.624675 L372.053373,161.494465 L375.536254,160.82838 L375.536254,160.67435 L377.432466,159.542605 L377.652769,159.454839 L377.654711,159.45322 L376.145254,157.22764 L378.562472,153.94231 L374.177395,153.353135 L370.886848,149.124221 L368.063746,150.723063 L369.08976,152.566409 L367.30067,152.566409 L365.136999,154.839985 L362.905507,155.309343 L364.420181,158.747183 L359.709215,161.494465 L359.709215,164.624675 L360.66219,166.30212 L362.905507,167.316308 L366.811314,166.30212 L369.08976,168.10373 L370.135945,166.30212 L372.053373,166.30212 L373.361409,164.911323 L373.538832,164.656325 L373.577048,164.68204 Z" id="河北" fill="#FF00FF"></path>
                <polygon id="辽宁" fill="#FBB03B" points="440 133 439 127 437 125 436 122 432 118 427 115 424.596 115.343 425 116 414 124 397 136 394 132 391 132 389.533 140.8 391 143 389.125 144.25 390 146 389 153 396 154 398.545 158.455 400 157 406 148 411 152 411 164 418 166 425 158 431 158 448 142 445 137"></polygon>
                <polygon id="黑龙江" fill="#009245" points="482 88 485 80 490 83 494 83 496 79 495 76 498 70 498 58 497 54 501 52 498 47 501 39 495 41 491 46 488 46 476 56 472 56 470 50 467 49 466 45 456 39 453 41 441 36 441 32 431 22 430 16 426 12 423 4 419 3 415 0 412 2 403 0 389 3 393 5 393 11 391 13 393 13 394 16 400 14 406 27 409 27 416 25 421 21 424 21 427 28 425 45 425 50 423 51 422 56 419 57 418 62 408 70 410 73 413 76 417 77 414 81 415 84 419 85 427 92 431 91 441 91 445 91 448 97 453 98 457 101 458 94 460 102 467 107 471 104 475 99 483 105 484 105 484 93"></polygon>
                <polygon id="山东" fill="#662D91" points="398 212 411 202 412 197 425 194 425 185 417 188 406 184 397 194 391 190 394 187 385 184 382.852 182.926 379 185 373 187 365 198 358 207 355.565 207.913 351 207 356 208 363 209 368 211 362 218 367 222 370 222 374 220 381 222 384 220 389 222 390 220 393 221 396 218 399.016 217.524 398 216"></polygon>
                <polygon id="吉林" fill="#A67C52" points="454 130 457 134 464 131 461 125 466 123 470 123 470 118 475 117 475 111 482 114 484 109 484 105 483 105 475 99 471 104 467 107 460 102 458 94 457 101 453 98 448 97 445 91 441 91 431 91 427 92 419 85 415 84 409 87 405 87 404 89 409 96 412 106 417 103 424.596 115.343 427 115 432 118 436 122 437 125 439 127 440 133 445 137 448 142 449 137"></polygon>
                <polygon id="江苏" fill="#D38913" points="427 249 419 244 416 236 411 232 412 228 407 222 402 222 399.016 217.524 396 218 393 221 390 220 389 222 384 220 381 222 374 220 370 222 378 225 378 228 377.857 228.143 383 229 387 235 393 244 397 244 397 251 396 254 405 261 412 261 419 259 422 262 425.298 256.723 419 252"></polygon>
                <polygon id="上海" fill="#00FF00" points="425.748 262.324 426 262 427 258 425.298 256.723 423 260.4"></polygon>
                <polygon id="河南" fill="#00FFFF" points="378 225 370 222 367 222 362 218 368 211 363 209 356 208 343 220 336 220 327 221 324 225 317 229 317 229 317 233 321 242 322 244 335 253 340 254 348 257 365 262 368 261 371 258 373 249 364 243 366 238 371 233 377 233 376 230 378 228"></polygon>
                <polygon id="山西" fill="#2E3192" points="317 229 324 225 327 221 336 220 343 220 356 208 351 207 347 205 345 205 344 202 348 197 347 187 343 184 344 181 347 174 351 174 351 172 347 166 348 162 347 156 345 156.25 345 158 333 163 323 174 317 184 317 197 315 200 317 207 315 224"></polygon>
                <polygon id="安徽" fill="#FF7BAC" points="401 277 400 272 405 270 404 267 405 266 406.429 261 405 261 396 254 397 251 397 244 393 244 387 235 383 229 377.857 228.143 376 230 377 233 371 233 366 238 364 243 373 249 371 258 368.143 260.857 371 263 371 268 371 273 373 276 374 280 378 278 382 280 385 279 388 282 391 283 393 284 397 281"></polygon>
                <polygon id="陕西" fill="#22B573" points="317 229 315 224 317 207 315 200 317 197 317 184 323 174 320 171 311 176 306 181 304 187 301 193 290 192 288 198 288.786 200.357 287 200 292 201 297 204 300 206 300 217 293 219 290 223 286 224 284 220 281 222 280 226 283 230 281 232 281 235 280 238 275 237 274 240 275 244 273.897 245.379 277 249 284 248 286 251 290 251 294 256 297 256 301 256 307 259 309 257 309 250 313 249 311 242 321 243 321 242 317 233"></polygon>
                <polygon id="湖北" fill="#DC7DFF" points="373 276 371 273 371 268 371 263 368.143 260.857 368 261 365 262 348 257 340 254 335 253 322 244 321 242 321 243 311 242 313 249 309 250 309 257 307.8 258.2 309 260 315 259 316 264 315 270 312 272 301 276 300 283 305 288 305.714 288.714 308 287 308 285 316 285 318 281 322 280 330 282 335 285 341 285 342 283 347 283 349 287 353 291 353 288 358 288 362 286 367 281 370 282 373.767 279.07"></polygon>
                <polygon id="浙江" fill="#00A99D" points="422 305 422 297 428 292 429 285 429 276 432 274 427 270 419 271 426 262 425.748 262.324 423 260.4 423.707 259.268 422 262 419 259 412 261 406.429 261 405 266 404 267 405 270 400 272 401 277 397 281 393 284 394 286 398 291 399 294 399 298 403 303 407 305 410 300 412 302 412 305 415 306 417 305 418.978 306.099 419 306"></polygon>
                <path d="M415,306 L412,305 L412,302 L410,300 L407,305 L403,303 L399,298 L399,297.25 L396,298 L394,299 L393,301 L389,301 L386,305 L385,309 L382,312 L382,317 L380,319 L380,321 L378,322 L378,325 L376,327 L376,330 L375,335 L377,337 L376.667,338 L380,338 L382,340 L384,339 L385,343 L386,348 C386,348 386.917,348.918 387.973,350.034 L388,350 L393,350 L399,342 L404,339 L406,331 L415,325 L413,312 L417,315 L418.978,306.099 L417,305 L415,306 Z" id="福建" fill="#0642ED"></path>
                <polygon id="江西" fill="#62BFAD" points="399 294 398 291 394 286 393 284 391 283 388 282 385 279 382 280 378 278 374 280 373.767 279.07 370 282 367 281 362 286 358 288 353 288 353 291 352.429 290.429 353 293 356 295 356 299 351 304 349 308 353 312 353 316 355 318 355 323 355 329 354 329 355 332 356 334 360 332 364 335 360 338 359 342 361 343 364 343 368 339 371 339 372 341 376 340 377 337 375 335 376 330 376 327 378 325 378 322 380 321 380 319 382 317 382 312 385 309 386 305 389 301 393 301 394 299 396 298 399 297.25"></polygon>
                <polygon id="贵州" fill="#00FFF2" points="307 319 307 315 306 312 309 309 306 306 308 302 306.846 300.077 305 301 300 292 296 291 287 290 283 294 283 298 279 294 272 298 271 301 276 305 274 307 270 307 268 305 268 307 267 311 262 312 258 311 254 311 252 314 252 318 254 319 256 318 260 319 261 321 258 326 256 330 259 331 262 334 258 340 261 342 268 339 272 342 278 339 283 335 286 333 293 335 295 332 301 332 306 329 309.065 324.71 308 324"></polygon>
                <polygon id="云南" fill="#FFFF00" points="275 351 273 347 267 347 259 343 260.273 341.515 258 340 262 334 259 331 256 330 258 326 261 321 260 319 256 318 254 319 252 318 252 314 254 311 258 311 262 312 267 311 268 307 268 305 266 303 262 306 260 303 259 300 259 297 257 294 251 297 249 301 249 307 243 312 242 318 243 320 239 322 236 321 232 324 228 321 229 319 226 314 224 308 222 306 222 303 219 301 215 301 215 298 216 295 212 294 207 298 205 294 204.429 286.571 205 286 205 285.692 202 288 201 293 198 296 195.316 298.053 195 299 199 304 201 318 195 324 186 333 187 338 185 345 197 344 199 352 203 355 201 366 205 366 210 373 214 376 219 374 229 380 229 367 236 364 241 367 245 363 246 366 251 367 257 364 262 364 263 359 267 357 269.379 360.172 273 355"></polygon>
                <polygon id="广西" fill="#8C6239" points="322 366 329 364 331 358 329 355 333 352 335 348 336 344 335.214 341.643 335 342 331 341 328 341 328 338 327 336 325 337 325 333 328 331 328 328 326 324 326 322 320 323 316 325 314 323 311 326 309.065 324.71 306 329 301 332 295 332 293 335 286 333 283 335 278 339 272 342 268 339 261 342 260.273 341.515 259 343 267 347 273 347 275 351 273 355 269.379 360.172 267 357 270 361 280 362 278 364 279 371 290 377 298 376 299 372 302 377 304 374 307 379 310 376 314 375 321 370"></polygon>
                <path d="M314,388 L319,390 L320,387 L316,384 L319,381 L318,378 L323,380 L326,377 L330,377 L335,374 L339,377 L341,372 L345,372 L347,368 L351,368 L350,364 L354,364 L359,366 L364,364 L373,360 L380,360 L388,350 L387.973,350.034 C386.917,348.918 386,348 386,348 L385,343 L384,339 L382,340 L380,338 L376.667,338 L377,337 L376,340 L372,341 L371,339 L368,339 L364,343 L361,343 L359,342 L360,338 L364,335 L360,332 L356,334 L355,332 L354,334 L350,333 L347,332 L344,332 L344,338 L341,338 L338,337 L335,342 L335.214,341.643 L336,344 L335,348 L333,352 L329,355 L331,358 L329,364 L322,366 L321,370 L314,375 L314,379 L311,384 L314,388 Z" id="广东" fill="#8CC63F"></path>
                <polygon id="湖南" fill="#FF00FF" points="356 299 356 295 353 293 352.429 290.429 349 287 347 283 342 283 341 285 335 285 330 282 322 280 318 281 316 285 308 285 308 287 305.795 288.654 305.783 288.783 308 291 307 300 306.846 300.077 308 302 306 306 309 309 306 312 307 315 307 319 308 324 311 326 314 323 316 325 320 323 326 322 326 324 328 328 328 331 325 333 325 337 327 336 328 338 328 341 331 341 335 342 338 337 341 338 344 338 344 332 347 332 350 333 354 334 355 332 354 329 355 329 355 323 355 318 353 316 353 312 349 308 351 304"></polygon>
                <polygon id="海南" fill="#8CC63F" points="320 396 314 398 309 399 303 402 302 413 306 414 311 417 316 413 320 409 320 405 323 401"></polygon>
                <polygon id="台湾" fill="#8CC63F" points="432 326 422 342 421 350 428 364 432 350 434 341 436 335 435 329"></polygon>
                <polygon id="北京" fill="#F8E71C" points="372.053373 161.494465 376.145254 160.711912 377.654711 159.45322 376.145254 157.22764 378.562472 153.94231 374.177395 153.353135 370.886848 149.124221 368.063746 150.723063 369.08976 152.566409 367.30067 152.566409 365.136999 154.839985 362.905507 155.309343 364.420181 158.747183 359.709215 161.494465 359.709215 164.624675 360.66219 166.30212 362.905507 167.316308 366.811314 166.30212 369.08976 168.10373 370.135945 166.30212 372.053373 166.30212 373.630999 164.624675"></polygon>
                <polygon id="天津" fill="#7ED321" points="377.432466 159.542605 379.15582 158.856045 381.015861 160.67435 381.015861 162.007471 379.224163 162.007471 380.103926 165.595736 382.428281 166.627314 381.475306 169.210781 383.687669 171 378.042509 171 378.042509 177.956241 374.934906 177.956241 372.92218 176.920837 371.412028 173.938094 372.92218 172.051273 372.167452 166.627314 373.538832 164.656325 374.934906 165.595736 375.536254 162.632122 375.536254 160.67435"></polygon>
            </g>
        </g>
    </g>
</svg>